<svg xmlns="http://www.w3.org/2000/svg" xmlns:xlink="http://www.w3.org/1999/xlink" width="286" zoomAndPan="magnify" viewBox="0 0 214.5 215.249992" height="287" preserveAspectRatio="xMidYMid meet" version="1.0"><defs><clipPath id="ab08fe70ad"><path d="M 0.125 0 L 213.878906 0 L 213.878906 214.503906 L 0.125 214.503906 Z M 0.125 0 " clip-rule="nonzero"/></clipPath><clipPath id="d145946866"><path d="M 0.125 0 L 213.132812 0 L 213.132812 213.753906 L 0.125 213.753906 Z M 0.125 0 " clip-rule="nonzero"/></clipPath><clipPath id="0d63e164b9"><path d="M 30.101562 0 L 149 0 L 149 213.753906 L 30.101562 213.753906 Z M 30.101562 0 " clip-rule="nonzero"/></clipPath></defs><g clip-path="url(#ab08fe70ad)"><path fill="#ffffff" d="M 0.125 0 L 213.878906 0 L 213.878906 214.503906 L 0.125 214.503906 Z M 0.125 0 " fill-opacity="1" fill-rule="nonzero"/></g><g clip-path="url(#d145946866)"><rect x="-21.45" width="257.4" fill="#ffffff" y="-21.524999" height="258.299991" fill-opacity="1"/><path fill="#ffffff" d="M -2.039062 -0.355469 L 220.179688 -0.355469 L 220.179688 215.121094 L -2.039062 215.121094 Z M -2.039062 -0.355469 " fill-opacity="1" fill-rule="nonzero"/></g><g clip-path="url(#0d63e164b9)"><path fill="#000000" d="M 132.320312 58.015625 C 132.320312 67.898438 130.582031 76.902344 127.113281 85.035156 C 123.644531 93.167969 118.511719 99.925781 111.730469 105.304688 C 104.9375 110.6875 96.65625 114.207031 86.882812 115.882812 C 92.554688 117.9375 98.101562 121.957031 103.519531 127.9375 C 108.9375 133.910156 113.855469 141.730469 118.253906 151.40625 L 148.28125 215.160156 L 117.648438 215.160156 L 89.519531 155.09375 C 84.53125 144.230469 79.96875 136.273438 75.820312 131.230469 C 71.667969 126.191406 66.769531 122.835938 61.109375 121.164062 C 55.445312 119.496094 47.433594 118.660156 37.074219 118.660156 L 29.023438 118.660156 L 29.023438 215.160156 L 2.644531 215.160156 L 2.644531 -0.148438 L 62.429688 -0.148438 C 85.46875 -0.148438 102.875 4.996094 114.644531 15.277344 C 126.425781 25.5625 132.320312 39.808594 132.320312 58.015625 Z M 105.34375 59.175781 C 105.34375 45.667969 101.28125 36.195312 93.171875 30.769531 C 85.078125 25.328125 73.65625 22.601562 58.914062 22.601562 L 29.023438 22.601562 L 29.023438 95.910156 L 57.734375 95.910156 C 74.140625 95.910156 86.175781 93 93.84375 87.167969 C 101.507812 81.339844 105.34375 72.011719 105.34375 59.175781 Z M 105.34375 59.175781 " fill-opacity="1" fill-rule="nonzero"/></g><path fill="#000000" d="M 6.511719 3.777344 L 3.382812 3.035156 L 3.382812 -0.0703125 L 19.230469 4.472656 L 19.230469 7.738281 L 3.382812 12.234375 L 3.382812 9.105469 L 6.511719 8.363281 Z M 16.289062 6.09375 L 9.105469 4.402344 L 9.105469 7.785156 Z M 16.289062 6.09375 " fill-opacity="1" fill-rule="nonzero"/><path fill="#000000" d="M 14.734375 30.199219 C 13.679688 30.199219 12.796875 29.933594 12.070312 29.410156 C 11.339844 28.902344 10.804688 28.125 10.449219 27.09375 C 10.367188 27.339844 10.253906 27.570312 10.101562 27.789062 C 9.945312 28.023438 9.667969 28.277344 9.269531 28.554688 C 8.878906 28.832031 8.328125 29.121094 7.625 29.433594 L 3.382812 31.425781 L 3.382812 28.023438 L 7.183594 26.191406 C 8.0625 25.757812 8.695312 25.410156 9.082031 25.148438 C 9.464844 24.898438 9.714844 24.675781 9.824219 24.476562 C 9.929688 24.292969 9.984375 24.027344 9.984375 23.691406 L 9.984375 23.019531 L 3.382812 23.019531 L 3.382812 20.007812 L 19.230469 20.007812 L 19.230469 25.125 C 19.230469 26.871094 18.84375 28.148438 18.070312 28.972656 C 17.296875 29.789062 16.183594 30.199219 14.734375 30.199219 Z M 14.597656 27.140625 C 15.320312 27.140625 15.847656 26.921875 16.171875 26.492188 C 16.496094 26.058594 16.660156 25.410156 16.660156 24.546875 L 16.660156 23.019531 L 12.394531 23.019531 L 12.394531 24.292969 C 12.394531 25.277344 12.570312 25.996094 12.929688 26.445312 C 13.300781 26.910156 13.855469 27.140625 14.597656 27.140625 Z M 14.597656 27.140625 " fill-opacity="1" fill-rule="nonzero"/><path fill="#000000" d="M 14.898438 48.933594 L 14.226562 45.898438 C 16 45.679688 16.890625 45.023438 16.890625 43.929688 C 16.890625 43.265625 16.640625 42.773438 16.148438 42.449219 C 15.667969 42.136719 15.058594 41.9375 14.320312 41.84375 C 13.589844 41.765625 12.632812 41.730469 11.445312 41.730469 C 10.253906 41.730469 9.269531 41.765625 8.480469 41.84375 C 7.703125 41.921875 7.050781 42.125 6.511719 42.449219 C 5.984375 42.773438 5.722656 43.269531 5.722656 43.953125 C 5.722656 45.167969 6.835938 45.886719 9.058594 46.109375 L 8.109375 49.074219 C 4.773438 48.609375 3.105469 46.925781 3.105469 44.023438 C 3.105469 42.214844 3.765625 40.855469 5.097656 39.945312 C 6.425781 39.046875 8.441406 38.601562 11.144531 38.601562 C 12.824219 38.601562 14.273438 38.730469 15.476562 38.996094 C 16.679688 39.273438 17.65625 39.8125 18.394531 40.617188 C 19.136719 41.417969 19.507812 42.539062 19.507812 43.976562 C 19.507812 45.367188 19.144531 46.460938 18.417969 47.265625 C 17.6875 48.066406 16.519531 48.621094 14.898438 48.933594 Z M 14.898438 48.933594 " fill-opacity="1" fill-rule="nonzero"/><path fill="#000000" d="M 3.382812 64.925781 L 10.402344 64.925781 L 10.402344 60.546875 L 3.382812 60.546875 L 3.382812 57.535156 L 19.230469 57.535156 L 19.230469 60.546875 L 12.976562 60.546875 L 12.976562 64.925781 L 19.230469 64.925781 L 19.230469 67.9375 L 3.382812 67.9375 Z M 3.382812 64.925781 " fill-opacity="1" fill-rule="nonzero"/><path fill="#000000" d="M 3.382812 77.390625 L 19.230469 77.390625 L 19.230469 80.402344 L 3.382812 80.402344 Z M 3.382812 77.390625 " fill-opacity="1" fill-rule="nonzero"/><path fill="#000000" d="M 16.75 95.269531 L 3.382812 95.269531 L 3.382812 92.28125 L 16.75 92.28125 L 16.75 88.621094 L 19.230469 88.621094 L 19.230469 98.90625 L 16.75 98.90625 Z M 16.75 95.269531 " fill-opacity="1" fill-rule="nonzero"/><path fill="#000000" d="M 16.726562 110.144531 L 12.996094 110.144531 L 12.996094 114.9375 L 10.472656 114.9375 L 10.472656 110.144531 L 5.886719 110.144531 L 5.886719 115.726562 L 3.382812 115.726562 L 3.382812 107.132812 L 19.230469 107.132812 L 19.230469 115.449219 L 16.726562 115.449219 Z M 16.726562 110.144531 " fill-opacity="1" fill-rule="nonzero"/><path fill="#000000" d="M 14.898438 134.089844 L 14.226562 131.054688 C 16 130.835938 16.890625 130.179688 16.890625 129.085938 C 16.890625 128.421875 16.640625 127.929688 16.148438 127.605469 C 15.667969 127.292969 15.058594 127.09375 14.320312 127 C 13.589844 126.921875 12.632812 126.886719 11.445312 126.886719 C 10.253906 126.886719 9.269531 126.921875 8.480469 127 C 7.703125 127.078125 7.050781 127.28125 6.511719 127.605469 C 5.984375 127.929688 5.722656 128.425781 5.722656 129.109375 C 5.722656 130.324219 6.835938 131.042969 9.058594 131.265625 L 8.109375 134.230469 C 4.773438 133.765625 3.105469 132.082031 3.105469 129.179688 C 3.105469 127.371094 3.765625 126.011719 5.097656 125.101562 C 6.425781 124.203125 8.441406 123.757812 11.144531 123.757812 C 12.824219 123.757812 14.273438 123.886719 15.476562 124.152344 C 16.679688 124.429688 17.65625 124.96875 18.394531 125.773438 C 19.136719 126.574219 19.507812 127.695312 19.507812 129.132812 C 19.507812 130.523438 19.144531 131.617188 18.417969 132.421875 C 17.6875 133.222656 16.519531 133.777344 14.898438 134.089844 Z M 14.898438 134.089844 " fill-opacity="1" fill-rule="nonzero"/><path fill="#000000" d="M 16.75 147.601562 L 3.382812 147.601562 L 3.382812 144.613281 L 16.75 144.613281 L 16.75 140.953125 L 19.230469 140.953125 L 19.230469 151.238281 L 16.75 151.238281 Z M 16.75 147.601562 " fill-opacity="1" fill-rule="nonzero"/><path fill="#000000" d="M 3.105469 164.792969 C 3.105469 163.460938 3.3125 162.40625 3.730469 161.617188 C 4.160156 160.84375 4.824219 160.285156 5.722656 159.949219 C 6.632812 159.609375 7.84375 159.441406 9.359375 159.441406 L 19.230469 159.441406 L 19.230469 162.429688 L 9.105469 162.429688 C 8.457031 162.429688 7.882812 162.480469 7.390625 162.589844 C 6.910156 162.695312 6.515625 162.917969 6.210938 163.242188 C 5.898438 163.566406 5.746094 164.035156 5.746094 164.652344 C 5.746094 165.164062 5.828125 165.570312 6 165.882812 C 6.1875 166.207031 6.511719 166.441406 6.972656 166.597656 C 7.449219 166.765625 8.117188 166.855469 8.96875 166.855469 L 19.230469 166.855469 L 19.230469 169.867188 L 8.804688 169.867188 C 6.859375 169.867188 5.421875 169.449219 4.496094 168.613281 C 3.570312 167.78125 3.105469 166.507812 3.105469 164.792969 Z M 3.105469 164.792969 " fill-opacity="1" fill-rule="nonzero"/><path fill="#000000" d="M 14.734375 189.480469 C 13.679688 189.480469 12.796875 189.214844 12.070312 188.695312 C 11.339844 188.183594 10.804688 187.40625 10.449219 186.378906 C 10.367188 186.621094 10.253906 186.851562 10.101562 187.070312 C 9.945312 187.304688 9.667969 187.558594 9.269531 187.835938 C 8.878906 188.113281 8.328125 188.402344 7.625 188.71875 L 3.382812 190.710938 L 3.382812 187.304688 L 7.183594 185.472656 C 8.0625 185.039062 8.695312 184.691406 9.082031 184.429688 C 9.464844 184.183594 9.714844 183.957031 9.824219 183.757812 C 9.929688 183.574219 9.984375 183.308594 9.984375 182.972656 L 9.984375 182.300781 L 3.382812 182.300781 L 3.382812 179.289062 L 19.230469 179.289062 L 19.230469 184.40625 C 19.230469 186.152344 18.84375 187.429688 18.070312 188.253906 C 17.296875 189.070312 16.183594 189.480469 14.734375 189.480469 Z M 14.597656 186.421875 C 15.320312 186.421875 15.847656 186.203125 16.171875 185.773438 C 16.496094 185.339844 16.660156 184.691406 16.660156 183.828125 L 16.660156 182.300781 L 12.394531 182.300781 L 12.394531 183.574219 C 12.394531 184.558594 12.570312 185.277344 12.929688 185.726562 C 13.300781 186.191406 13.855469 186.421875 14.597656 186.421875 Z M 14.597656 186.421875 " fill-opacity="1" fill-rule="nonzero"/><path fill="#000000" d="M 16.726562 201.605469 L 12.996094 201.605469 L 12.996094 206.398438 L 10.472656 206.398438 L 10.472656 201.605469 L 5.886719 201.605469 L 5.886719 207.1875 L 3.382812 207.1875 L 3.382812 198.59375 L 19.230469 198.59375 L 19.230469 206.910156 L 16.726562 206.910156 Z M 16.726562 201.605469 " fill-opacity="1" fill-rule="nonzero"/></svg>