<svg xmlns="http://www.w3.org/2000/svg" xmlns:xlink="http://www.w3.org/1999/xlink" width="286" zoomAndPan="magnify" viewBox="0 0 214.5 214.499992" height="286" preserveAspectRatio="xMidYMid meet" version="1.0"><defs><clipPath id="ed64aea53c"><path d="M 0 0 L 214 0 L 214 214 L 0 214 Z M 0 0 " clip-rule="nonzero"/></clipPath><clipPath id="949c56105c"><path d="M 30.878906 0 L 149.734375 0 L 149.734375 214 L 30.878906 214 Z M 30.878906 0 " clip-rule="nonzero"/></clipPath></defs><path fill="#ffffff" d="M 0 0 L 214 0 L 214 214 L 0 214 Z M 0 0 " fill-opacity="1" fill-rule="nonzero"/><g clip-path="url(#ed64aea53c)"><path fill="#ffffff" d="M -7.253906 -6.714844 L 214.355469 -6.714844 L 214.355469 221.566406 L -7.253906 221.566406 Z M -7.253906 -6.714844 " fill-opacity="1" fill-rule="nonzero"/><path fill="#000000" d="M -1.261719 -0.390625 L 214.410156 -0.390625 L 214.410156 214.648438 L -1.261719 214.648438 Z M -1.261719 -0.390625 " fill-opacity="1" fill-rule="nonzero"/></g><g clip-path="url(#949c56105c)"><path fill="#ffffff" d="M 133.625 57.011719 C 133.625 66.886719 131.890625 75.902344 128.417969 84.027344 C 124.9375 92.160156 119.800781 98.914062 113.007812 104.292969 C 106.207031 109.675781 97.914062 113.199219 88.125 114.867188 C 93.804688 116.929688 99.363281 120.945312 104.78125 126.929688 C 110.21875 132.898438 115.140625 140.722656 119.542969 150.402344 L 149.617188 214.148438 L 118.9375 214.148438 L 90.765625 154.085938 C 85.777344 143.222656 81.203125 135.265625 77.046875 130.226562 C 72.890625 125.183594 67.980469 121.828125 62.316406 120.15625 C 56.644531 118.488281 48.621094 117.652344 38.242188 117.652344 L 30.179688 117.652344 L 30.179688 214.148438 L 3.769531 214.148438 L 3.769531 -1.152344 L 63.632812 -1.152344 C 86.710938 -1.152344 104.140625 3.992188 115.929688 14.265625 C 127.722656 24.554688 133.625 38.800781 133.625 57.011719 Z M 106.613281 58.167969 C 106.613281 44.664062 102.550781 35.1875 94.425781 29.757812 C 86.316406 24.324219 74.878906 21.597656 60.117188 21.597656 L 30.179688 21.597656 L 30.179688 94.902344 L 58.933594 94.902344 C 75.363281 94.902344 87.417969 91.988281 95.101562 86.160156 C 102.773438 80.335938 106.613281 71.007812 106.613281 58.167969 Z M 106.613281 58.167969 " fill-opacity="1" fill-rule="nonzero"/></g><path fill="#ffffff" d="M 7.300781 3.097656 L 4.164062 2.355469 L 4.164062 -0.761719 L 20.019531 3.777344 L 20.019531 7.050781 L 4.164062 11.542969 L 4.164062 8.425781 L 7.300781 7.679688 Z M 17.089844 5.402344 L 9.894531 3.707031 L 9.894531 7.09375 Z M 17.089844 5.402344 " fill-opacity="1" fill-rule="nonzero"/><path fill="#ffffff" d="M 15.507812 29.539062 C 14.457031 29.539062 13.570312 29.277344 12.847656 28.769531 C 12.125 28.257812 11.589844 27.472656 11.246094 26.421875 C 11.15625 26.675781 11.03125 26.910156 10.886719 27.121094 C 10.734375 27.347656 10.457031 27.597656 10.050781 27.867188 C 9.65625 28.148438 9.109375 28.453125 8.40625 28.769531 L 4.164062 30.757812 L 4.164062 27.371094 L 7.953125 25.542969 C 8.839844 25.089844 9.476562 24.734375 9.871094 24.480469 C 10.261719 24.238281 10.507812 24.011719 10.617188 23.804688 C 10.71875 23.605469 10.773438 23.339844 10.773438 23.015625 L 10.773438 22.335938 L 4.164062 22.335938 L 4.164062 19.335938 L 20.019531 19.335938 L 20.019531 24.460938 C 20.019531 26.203125 19.625 27.484375 18.847656 28.296875 C 18.082031 29.121094 16.964844 29.539062 15.507812 29.539062 Z M 15.375 26.46875 C 16.105469 26.46875 16.636719 26.25 16.953125 25.8125 C 17.269531 25.375 17.425781 24.730469 17.425781 23.871094 L 17.425781 22.335938 L 13.164062 22.335938 L 13.164062 23.625 C 13.164062 24.601562 13.34375 25.316406 13.707031 25.769531 C 14.078125 26.230469 14.636719 26.46875 15.375 26.46875 Z M 15.375 26.46875 " fill-opacity="1" fill-rule="nonzero"/><path fill="#ffffff" d="M 15.667969 48.28125 L 15.011719 45.257812 C 16.785156 45.03125 17.675781 44.375 17.675781 43.292969 C 17.675781 42.613281 17.425781 42.117188 16.929688 41.800781 C 16.445312 41.484375 15.835938 41.28125 15.105469 41.191406 C 14.363281 41.113281 13.410156 41.078125 12.238281 41.078125 C 11.050781 41.078125 10.0625 41.113281 9.285156 41.191406 C 8.5 41.28125 7.839844 41.484375 7.300781 41.800781 C 6.769531 42.128906 6.511719 42.636719 6.511719 43.316406 C 6.511719 44.535156 7.617188 45.246094 9.828125 45.460938 L 8.878906 48.417969 C 5.550781 47.949219 3.894531 46.261719 3.894531 43.359375 C 3.894531 41.566406 4.554688 40.222656 5.878906 39.320312 C 7.199219 38.417969 9.21875 37.964844 11.921875 37.964844 C 13.605469 37.964844 15.046875 38.089844 16.253906 38.347656 C 17.453125 38.621094 18.425781 39.148438 19.164062 39.949219 C 19.914062 40.765625 20.289062 41.890625 20.289062 43.335938 C 20.289062 44.71875 19.917969 45.808594 19.183594 46.609375 C 18.464844 47.421875 17.292969 47.976562 15.667969 48.28125 Z M 15.667969 48.28125 " fill-opacity="1" fill-rule="nonzero"/><path fill="#ffffff" d="M 4.164062 64.304688 L 11.179688 64.304688 L 11.179688 59.902344 L 4.164062 59.902344 L 4.164062 56.902344 L 20.019531 56.902344 L 20.019531 59.902344 L 13.75 59.902344 L 13.75 64.304688 L 20.019531 64.304688 L 20.019531 67.308594 L 4.164062 67.308594 Z M 4.164062 64.304688 " fill-opacity="1" fill-rule="nonzero"/><path fill="#ffffff" d="M 4.164062 76.777344 L 20.019531 76.777344 L 20.019531 79.777344 L 4.164062 79.777344 Z M 4.164062 76.777344 " fill-opacity="1" fill-rule="nonzero"/><path fill="#ffffff" d="M 17.539062 94.6875 L 4.164062 94.6875 L 4.164062 91.664062 L 17.539062 91.664062 L 17.539062 88.007812 L 20.019531 88.007812 L 20.019531 98.324219 L 17.539062 98.324219 Z M 17.539062 94.6875 " fill-opacity="1" fill-rule="nonzero"/><path fill="#ffffff" d="M 17.515625 109.550781 L 13.773438 109.550781 L 13.773438 114.359375 L 11.269531 114.359375 L 11.269531 109.550781 L 6.667969 109.550781 L 6.667969 115.148438 L 4.164062 115.148438 L 4.164062 106.546875 L 20.019531 106.546875 L 20.019531 114.855469 L 17.515625 114.855469 Z M 17.515625 109.550781 " fill-opacity="1" fill-rule="nonzero"/><path fill="#ffffff" d="M 15.667969 133.523438 L 15.011719 130.5 C 16.785156 130.273438 17.675781 129.617188 17.675781 128.535156 C 17.675781 127.855469 17.425781 127.359375 16.929688 127.042969 C 16.445312 126.726562 15.835938 126.523438 15.105469 126.433594 C 14.363281 126.355469 13.410156 126.320312 12.238281 126.320312 C 11.050781 126.320312 10.0625 126.355469 9.285156 126.433594 C 8.5 126.523438 7.839844 126.726562 7.300781 127.042969 C 6.769531 127.371094 6.511719 127.878906 6.511719 128.558594 C 6.511719 129.777344 7.617188 130.488281 9.828125 130.703125 L 8.878906 133.660156 C 5.550781 133.191406 3.894531 131.503906 3.894531 128.601562 C 3.894531 126.808594 4.554688 125.464844 5.878906 124.5625 C 7.199219 123.660156 9.21875 123.207031 11.921875 123.207031 C 13.605469 123.207031 15.046875 123.332031 16.253906 123.589844 C 17.453125 123.863281 18.425781 124.390625 19.164062 125.195312 C 19.914062 126.007812 20.289062 127.136719 20.289062 128.578125 C 20.289062 129.960938 19.917969 131.050781 19.183594 131.851562 C 18.464844 132.664062 17.292969 133.21875 15.667969 133.523438 Z M 15.667969 133.523438 " fill-opacity="1" fill-rule="nonzero"/><path fill="#ffffff" d="M 17.539062 147.074219 L 4.164062 147.074219 L 4.164062 144.050781 L 17.539062 144.050781 L 17.539062 140.390625 L 20.019531 140.390625 L 20.019531 150.707031 L 17.539062 150.707031 Z M 17.539062 147.074219 " fill-opacity="1" fill-rule="nonzero"/><path fill="#ffffff" d="M 3.894531 164.261719 C 3.894531 162.933594 4.109375 161.878906 4.527344 161.101562 C 4.945312 160.316406 5.609375 159.75 6.511719 159.40625 C 7.414062 159.058594 8.621094 158.886719 10.140625 158.886719 L 20.019531 158.886719 L 20.019531 161.914062 L 9.894531 161.914062 C 9.230469 161.914062 8.660156 161.964844 8.179688 162.070312 C 7.695312 162.171875 7.300781 162.386719 6.984375 162.703125 C 6.679688 163.03125 6.535156 163.503906 6.535156 164.125 C 6.535156 164.632812 6.625 165.050781 6.804688 165.367188 C 6.984375 165.683594 7.304688 165.921875 7.773438 166.089844 C 8.234375 166.253906 8.890625 166.335938 9.734375 166.335938 L 20.019531 166.335938 L 20.019531 169.339844 L 9.578125 169.339844 C 7.636719 169.339844 6.199219 168.917969 5.269531 168.074219 C 4.351562 167.246094 3.894531 165.976562 3.894531 164.261719 Z M 3.894531 164.261719 " fill-opacity="1" fill-rule="nonzero"/><path fill="#ffffff" d="M 15.507812 188.980469 C 14.457031 188.980469 13.570312 188.722656 12.847656 188.214844 C 12.125 187.699219 11.589844 186.914062 11.246094 185.867188 C 11.15625 186.121094 11.03125 186.351562 10.886719 186.566406 C 10.734375 186.792969 10.457031 187.039062 10.050781 187.308594 C 9.65625 187.59375 9.109375 187.898438 8.40625 188.214844 L 4.164062 190.199219 L 4.164062 186.8125 L 7.953125 184.984375 C 8.839844 184.535156 9.476562 184.179688 9.871094 183.925781 C 10.261719 183.679688 10.507812 183.457031 10.617188 183.246094 C 10.71875 183.050781 10.773438 182.785156 10.773438 182.457031 L 10.773438 181.78125 L 4.164062 181.78125 L 4.164062 178.777344 L 20.019531 178.777344 L 20.019531 183.902344 C 20.019531 185.644531 19.625 186.925781 18.847656 187.738281 C 18.082031 188.5625 16.964844 188.980469 15.507812 188.980469 Z M 15.375 185.910156 C 16.105469 185.910156 16.636719 185.691406 16.953125 185.257812 C 17.269531 184.816406 17.425781 184.171875 17.425781 183.316406 L 17.425781 181.78125 L 13.164062 181.78125 L 13.164062 183.066406 C 13.164062 184.042969 13.34375 184.757812 13.707031 185.210938 C 14.078125 185.671875 14.636719 185.910156 15.375 185.910156 Z M 15.375 185.910156 " fill-opacity="1" fill-rule="nonzero"/><path fill="#ffffff" d="M 17.515625 201.105469 L 13.773438 201.105469 L 13.773438 205.910156 L 11.269531 205.910156 L 11.269531 201.105469 L 6.667969 201.105469 L 6.667969 206.703125 L 4.164062 206.703125 L 4.164062 198.101562 L 20.019531 198.101562 L 20.019531 206.410156 L 17.515625 206.410156 Z M 17.515625 201.105469 " fill-opacity="1" fill-rule="nonzero"/></svg>