<svg xmlns="http://www.w3.org/2000/svg" xmlns:xlink="http://www.w3.org/1999/xlink" width="391" zoomAndPan="magnify" viewBox="0 0 293.25 65.249999" height="87" preserveAspectRatio="xMidYMid meet" version="1.0"><defs><g/><clipPath id="60c2e28068"><path d="M 4.59375 0 L 34.609375 0 L 34.609375 46.085938 L 4.59375 46.085938 Z M 4.59375 0 " clip-rule="nonzero"/></clipPath><clipPath id="24e37710fa"><path d="M 0.59375 0 L 30.609375 0 L 30.609375 46.085938 L 0.59375 46.085938 Z M 0.59375 0 " clip-rule="nonzero"/></clipPath><clipPath id="ee1a78dab0"><rect x="0" width="31" y="0" height="47"/></clipPath><clipPath id="10eb91ae0e"><path d="M 36.835938 0 L 66.675781 0 L 66.675781 46.085938 L 36.835938 46.085938 Z M 36.835938 0 " clip-rule="nonzero"/></clipPath><clipPath id="6c540973d1"><path d="M 0.835938 0 L 30.675781 0 L 30.675781 46.085938 L 0.835938 46.085938 Z M 0.835938 0 " clip-rule="nonzero"/></clipPath><clipPath id="028dcf2ae8"><rect x="0" width="31" y="0" height="47"/></clipPath><clipPath id="613304254e"><path d="M 68.902344 0 L 98.746094 0 L 98.746094 46.085938 L 68.902344 46.085938 Z M 68.902344 0 " clip-rule="nonzero"/></clipPath><clipPath id="47ed402bcf"><path d="M 0.902344 0 L 30.746094 0 L 30.746094 46.085938 L 0.902344 46.085938 Z M 0.902344 0 " clip-rule="nonzero"/></clipPath><clipPath id="fe67535687"><rect x="0" width="31" y="0" height="47"/></clipPath><clipPath id="0cd758e391"><path d="M 100.96875 0 L 130.8125 0 L 130.8125 46.085938 L 100.96875 46.085938 Z M 100.96875 0 " clip-rule="nonzero"/></clipPath><clipPath id="b68f57c2a9"><path d="M 0.96875 0 L 30.8125 0 L 30.8125 46.085938 L 0.96875 46.085938 Z M 0.96875 0 " clip-rule="nonzero"/></clipPath><clipPath id="fc16218295"><rect x="0" width="31" y="0" height="47"/></clipPath><clipPath id="c142156579"><path d="M 133.035156 0 L 162.878906 0 L 162.878906 46.085938 L 133.035156 46.085938 Z M 133.035156 0 " clip-rule="nonzero"/></clipPath><clipPath id="116bf1c153"><path d="M 0.0351562 0 L 29.878906 0 L 29.878906 46.085938 L 0.0351562 46.085938 Z M 0.0351562 0 " clip-rule="nonzero"/></clipPath><clipPath id="d79f93d888"><rect x="0" width="30" y="0" height="47"/></clipPath><clipPath id="d5300a4d09"><path d="M 165.101562 0 L 194.945312 0 L 194.945312 46.085938 L 165.101562 46.085938 Z M 165.101562 0 " clip-rule="nonzero"/></clipPath><clipPath id="d5c803e2aa"><path d="M 0.101562 0 L 29.945312 0 L 29.945312 46.085938 L 0.101562 46.085938 Z M 0.101562 0 " clip-rule="nonzero"/></clipPath><clipPath id="08312b0ad8"><rect x="0" width="30" y="0" height="47"/></clipPath><clipPath id="fcc9a841a0"><path d="M 197.171875 0 L 227.011719 0 L 227.011719 46.085938 L 197.171875 46.085938 Z M 197.171875 0 " clip-rule="nonzero"/></clipPath><clipPath id="89a75b86d5"><path d="M 0.171875 0 L 30.011719 0 L 30.011719 46.085938 L 0.171875 46.085938 Z M 0.171875 0 " clip-rule="nonzero"/></clipPath><clipPath id="0bc9257b94"><rect x="0" width="31" y="0" height="47"/></clipPath><clipPath id="a91855df2d"><path d="M 229.238281 0 L 259.078125 0 L 259.078125 46.085938 L 229.238281 46.085938 Z M 229.238281 0 " clip-rule="nonzero"/></clipPath><clipPath id="bf87a1dfbb"><path d="M 0.238281 0 L 30.078125 0 L 30.078125 46.085938 L 0.238281 46.085938 Z M 0.238281 0 " clip-rule="nonzero"/></clipPath><clipPath id="9f3b5c551a"><rect x="0" width="31" y="0" height="47"/></clipPath><clipPath id="38cc2649d2"><path d="M 261.304688 0 L 291.148438 0 L 291.148438 46.085938 L 261.304688 46.085938 Z M 261.304688 0 " clip-rule="nonzero"/></clipPath><clipPath id="c8e28989c7"><path d="M 0.304688 0 L 30.148438 0 L 30.148438 46.085938 L 0.304688 46.085938 Z M 0.304688 0 " clip-rule="nonzero"/></clipPath><clipPath id="713bb0c1cc"><rect x="0" width="31" y="0" height="47"/></clipPath></defs><g clip-path="url(#60c2e28068)"><g transform="matrix(1, 0, 0, 1, 4, 0.000000000000000912)"><g clip-path="url(#ee1a78dab0)"><g clip-path="url(#24e37710fa)"><path fill="#ffffff" d="M 0.59375 0 L 30.609375 0 L 30.609375 46.078125 L 0.59375 46.078125 Z M 0.59375 0 " fill-opacity="1" fill-rule="nonzero"/></g></g></g></g><g fill="#000000" fill-opacity="1"><g transform="translate(14.094162, 29.65909)"><g><path d="M 3.21875 -5.28125 L 3.21875 0 L 1.75 0 L 1.75 -12.6875 L 5.234375 -12.6875 C 6.785156 -12.6875 7.929688 -12.390625 8.671875 -11.796875 C 9.421875 -11.203125 9.796875 -10.304688 9.796875 -9.109375 C 9.796875 -7.429688 8.941406 -6.296875 7.234375 -5.703125 L 10.6875 0 L 8.9375 0 L 5.875 -5.28125 Z M 3.21875 -6.546875 L 5.25 -6.546875 C 6.289062 -6.546875 7.050781 -6.75 7.53125 -7.15625 C 8.019531 -7.570312 8.265625 -8.195312 8.265625 -9.03125 C 8.265625 -9.863281 8.015625 -10.46875 7.515625 -10.84375 C 7.023438 -11.21875 6.234375 -11.40625 5.140625 -11.40625 L 3.21875 -11.40625 Z M 3.21875 -6.546875 "/></g></g></g><g clip-path="url(#10eb91ae0e)"><g transform="matrix(1, 0, 0, 1, 36, 0.000000000000000912)"><g clip-path="url(#028dcf2ae8)"><g clip-path="url(#6c540973d1)"><path fill="#ffffff" d="M 0.835938 0 L 30.675781 0 L 30.675781 46.046875 L 0.835938 46.046875 Z M 0.835938 0 " fill-opacity="1" fill-rule="nonzero"/></g></g></g></g><g fill="#000000" fill-opacity="1"><g transform="translate(46.798184, 29.65909)"><g><path d="M 8.828125 0 L 1.75 0 L 1.75 -12.6875 L 8.828125 -12.6875 L 8.828125 -11.375 L 3.21875 -11.375 L 3.21875 -7.296875 L 8.484375 -7.296875 L 8.484375 -5.984375 L 3.21875 -5.984375 L 3.21875 -1.3125 L 8.828125 -1.3125 Z M 8.828125 0 "/></g></g></g><g fill="#ffffff" fill-opacity="1"><g transform="translate(8.302315, 58.059583)"><g><path d="M 2.25 0.109375 C 1.90625 0.109375 1.59375 0.046875 1.3125 -0.078125 C 1.039062 -0.203125 0.820312 -0.382812 0.65625 -0.625 C 0.5 -0.875 0.421875 -1.171875 0.421875 -1.515625 C 0.421875 -1.828125 0.476562 -2.078125 0.59375 -2.265625 C 0.71875 -2.453125 0.878906 -2.601562 1.078125 -2.71875 C 1.285156 -2.832031 1.507812 -2.914062 1.75 -2.96875 C 2 -3.019531 2.25 -3.0625 2.5 -3.09375 C 2.832031 -3.132812 3.097656 -3.164062 3.296875 -3.1875 C 3.492188 -3.207031 3.640625 -3.242188 3.734375 -3.296875 C 3.828125 -3.359375 3.875 -3.453125 3.875 -3.578125 L 3.875 -3.625 C 3.875 -3.832031 3.832031 -4.015625 3.75 -4.171875 C 3.664062 -4.328125 3.535156 -4.445312 3.359375 -4.53125 C 3.191406 -4.613281 2.988281 -4.65625 2.75 -4.65625 C 2.488281 -4.65625 2.265625 -4.613281 2.078125 -4.53125 C 1.898438 -4.457031 1.753906 -4.359375 1.640625 -4.234375 C 1.523438 -4.109375 1.445312 -3.972656 1.40625 -3.828125 L 0.5625 -4.046875 C 0.675781 -4.378906 0.84375 -4.644531 1.0625 -4.84375 C 1.289062 -5.039062 1.546875 -5.179688 1.828125 -5.265625 C 2.117188 -5.359375 2.414062 -5.40625 2.71875 -5.40625 C 2.925781 -5.40625 3.144531 -5.378906 3.375 -5.328125 C 3.613281 -5.273438 3.832031 -5.179688 4.03125 -5.046875 C 4.238281 -4.921875 4.40625 -4.734375 4.53125 -4.484375 C 4.664062 -4.242188 4.734375 -3.929688 4.734375 -3.546875 L 4.734375 0 L 3.890625 0 L 3.890625 -0.734375 L 3.828125 -0.734375 C 3.773438 -0.609375 3.679688 -0.476562 3.546875 -0.34375 C 3.410156 -0.21875 3.234375 -0.109375 3.015625 -0.015625 C 2.804688 0.0664062 2.550781 0.109375 2.25 0.109375 Z M 2.390625 -0.640625 C 2.710938 -0.640625 2.984375 -0.703125 3.203125 -0.828125 C 3.421875 -0.953125 3.585938 -1.113281 3.703125 -1.3125 C 3.816406 -1.519531 3.875 -1.734375 3.875 -1.953125 L 3.875 -2.671875 C 3.832031 -2.628906 3.753906 -2.59375 3.640625 -2.5625 C 3.535156 -2.53125 3.410156 -2.5 3.265625 -2.46875 C 3.117188 -2.445312 2.972656 -2.425781 2.828125 -2.40625 C 2.691406 -2.394531 2.570312 -2.378906 2.46875 -2.359375 C 2.257812 -2.335938 2.066406 -2.296875 1.890625 -2.234375 C 1.710938 -2.171875 1.566406 -2.078125 1.453125 -1.953125 C 1.347656 -1.835938 1.296875 -1.679688 1.296875 -1.484375 C 1.296875 -1.296875 1.34375 -1.140625 1.4375 -1.015625 C 1.53125 -0.890625 1.65625 -0.796875 1.8125 -0.734375 C 1.976562 -0.671875 2.171875 -0.640625 2.390625 -0.640625 Z M 2.390625 -0.640625 "/></g></g></g><g fill="#ffffff" fill-opacity="1"><g transform="translate(20.754632, 58.059583)"><g><path d="M 0.734375 0 L 0.734375 -5.328125 L 1.5625 -5.328125 L 1.5625 -4.515625 L 1.609375 -4.515625 C 1.703125 -4.785156 1.867188 -5 2.109375 -5.15625 C 2.359375 -5.320312 2.644531 -5.40625 2.96875 -5.40625 C 3.03125 -5.40625 3.101562 -5.40625 3.1875 -5.40625 C 3.269531 -5.40625 3.335938 -5.398438 3.390625 -5.390625 L 3.390625 -4.53125 C 3.359375 -4.539062 3.289062 -4.550781 3.1875 -4.5625 C 3.09375 -4.570312 2.988281 -4.578125 2.875 -4.578125 C 2.625 -4.578125 2.398438 -4.523438 2.203125 -4.421875 C 2.015625 -4.316406 1.863281 -4.171875 1.75 -3.984375 C 1.644531 -3.796875 1.59375 -3.578125 1.59375 -3.328125 L 1.59375 0 Z M 0.734375 0 "/></g></g></g><g fill="#ffffff" fill-opacity="1"><g transform="translate(31.35398, 58.059583)"><g><path d="M 2.90625 0.109375 C 2.414062 0.109375 1.988281 -0.00390625 1.625 -0.234375 C 1.257812 -0.460938 0.972656 -0.785156 0.765625 -1.203125 C 0.566406 -1.617188 0.46875 -2.097656 0.46875 -2.640625 C 0.46875 -3.191406 0.566406 -3.675781 0.765625 -4.09375 C 0.972656 -4.507812 1.257812 -4.832031 1.625 -5.0625 C 1.988281 -5.289062 2.414062 -5.40625 2.90625 -5.40625 C 3.175781 -5.40625 3.425781 -5.367188 3.65625 -5.296875 C 3.894531 -5.234375 4.109375 -5.132812 4.296875 -5 C 4.484375 -4.863281 4.644531 -4.695312 4.78125 -4.5 C 4.914062 -4.3125 5.015625 -4.097656 5.078125 -3.859375 L 4.25 -3.671875 C 4.21875 -3.816406 4.160156 -3.945312 4.078125 -4.0625 C 3.992188 -4.175781 3.894531 -4.273438 3.78125 -4.359375 C 3.675781 -4.453125 3.546875 -4.519531 3.390625 -4.5625 C 3.242188 -4.613281 3.082031 -4.640625 2.90625 -4.640625 C 2.550781 -4.640625 2.257812 -4.546875 2.03125 -4.359375 C 1.800781 -4.179688 1.628906 -3.941406 1.515625 -3.640625 C 1.398438 -3.335938 1.34375 -3.003906 1.34375 -2.640625 C 1.34375 -2.273438 1.398438 -1.941406 1.515625 -1.640625 C 1.628906 -1.335938 1.800781 -1.097656 2.03125 -0.921875 C 2.257812 -0.742188 2.550781 -0.65625 2.90625 -0.65625 C 3.082031 -0.65625 3.242188 -0.675781 3.390625 -0.71875 C 3.546875 -0.769531 3.679688 -0.835938 3.796875 -0.921875 C 3.910156 -1.015625 4.003906 -1.125 4.078125 -1.25 C 4.160156 -1.375 4.222656 -1.507812 4.265625 -1.65625 L 5.09375 -1.46875 C 5.03125 -1.226562 4.929688 -1.007812 4.796875 -0.8125 C 4.660156 -0.625 4.492188 -0.457031 4.296875 -0.3125 C 4.109375 -0.175781 3.894531 -0.0703125 3.65625 0 C 3.425781 0.0703125 3.175781 0.109375 2.90625 0.109375 Z M 2.90625 0.109375 "/></g></g></g><g fill="#ffffff" fill-opacity="1"><g transform="translate(43.893155, 58.059583)"><g><path d="M 1.59375 -3.171875 L 1.59375 0 L 0.734375 0 L 0.734375 -7.203125 L 1.59375 -7.203125 L 1.59375 -4.046875 L 1.421875 -4.046875 C 1.578125 -4.535156 1.804688 -4.882812 2.109375 -5.09375 C 2.410156 -5.300781 2.769531 -5.40625 3.1875 -5.40625 C 3.539062 -5.40625 3.851562 -5.328125 4.125 -5.171875 C 4.40625 -5.023438 4.625 -4.800781 4.78125 -4.5 C 4.9375 -4.207031 5.015625 -3.832031 5.015625 -3.375 L 5.015625 0 L 4.15625 0 L 4.15625 -3.296875 C 4.15625 -3.722656 4.046875 -4.050781 3.828125 -4.28125 C 3.617188 -4.507812 3.328125 -4.625 2.953125 -4.625 C 2.691406 -4.625 2.457031 -4.566406 2.25 -4.453125 C 2.050781 -4.347656 1.890625 -4.1875 1.765625 -3.96875 C 1.648438 -3.757812 1.59375 -3.492188 1.59375 -3.171875 Z M 1.59375 -3.171875 "/></g></g></g><g fill="#ffffff" fill-opacity="1"><g transform="translate(56.639829, 58.059583)"><g><path d="M 0.734375 0 L 0.734375 -5.328125 L 1.59375 -5.328125 L 1.59375 0 Z M 1.15625 -6.234375 C 0.988281 -6.234375 0.847656 -6.289062 0.734375 -6.40625 C 0.617188 -6.519531 0.5625 -6.65625 0.5625 -6.8125 C 0.5625 -6.96875 0.617188 -7.101562 0.734375 -7.21875 C 0.847656 -7.332031 0.988281 -7.390625 1.15625 -7.390625 C 1.320312 -7.390625 1.460938 -7.332031 1.578125 -7.21875 C 1.691406 -7.101562 1.75 -6.96875 1.75 -6.8125 C 1.75 -6.65625 1.691406 -6.519531 1.578125 -6.40625 C 1.460938 -6.289062 1.320312 -6.234375 1.15625 -6.234375 Z M 1.15625 -6.234375 "/></g></g></g><g fill="#ffffff" fill-opacity="1"><g transform="translate(65.95561, 58.059583)"><g><path d="M 2.875 -5.328125 L 2.875 -4.59375 L 0.09375 -4.59375 L 0.09375 -5.328125 Z M 0.921875 -6.640625 L 1.78125 -6.640625 L 1.78125 -1.359375 C 1.78125 -1.128906 1.828125 -0.960938 1.921875 -0.859375 C 2.015625 -0.753906 2.175781 -0.703125 2.40625 -0.703125 C 2.457031 -0.703125 2.523438 -0.707031 2.609375 -0.71875 C 2.703125 -0.726562 2.785156 -0.738281 2.859375 -0.75 L 3 -0.03125 C 2.90625 0 2.800781 0.0195312 2.6875 0.03125 C 2.582031 0.0390625 2.472656 0.046875 2.359375 0.046875 C 1.898438 0.046875 1.546875 -0.0664062 1.296875 -0.296875 C 1.046875 -0.535156 0.921875 -0.867188 0.921875 -1.296875 Z M 0.921875 -6.640625 "/></g></g></g><g fill="#ffffff" fill-opacity="1"><g transform="translate(76.154452, 58.059583)"><g><path d="M 2.953125 0.109375 C 2.441406 0.109375 2 -0.00390625 1.625 -0.234375 C 1.25 -0.460938 0.960938 -0.78125 0.765625 -1.1875 C 0.566406 -1.601562 0.46875 -2.082031 0.46875 -2.625 C 0.46875 -3.175781 0.566406 -3.660156 0.765625 -4.078125 C 0.960938 -4.492188 1.242188 -4.816406 1.609375 -5.046875 C 1.972656 -5.285156 2.394531 -5.40625 2.875 -5.40625 C 3.175781 -5.40625 3.460938 -5.351562 3.734375 -5.25 C 4.015625 -5.15625 4.265625 -5 4.484375 -4.78125 C 4.710938 -4.5625 4.890625 -4.28125 5.015625 -3.9375 C 5.148438 -3.59375 5.21875 -3.1875 5.21875 -2.71875 L 5.21875 -2.390625 L 1.03125 -2.390625 L 1.03125 -3.109375 L 4.75 -3.109375 L 4.359375 -2.84375 C 4.359375 -3.195312 4.300781 -3.507812 4.1875 -3.78125 C 4.070312 -4.050781 3.90625 -4.257812 3.6875 -4.40625 C 3.46875 -4.5625 3.195312 -4.640625 2.875 -4.640625 C 2.550781 -4.640625 2.273438 -4.5625 2.046875 -4.40625 C 1.816406 -4.257812 1.640625 -4.054688 1.515625 -3.796875 C 1.390625 -3.546875 1.328125 -3.265625 1.328125 -2.953125 L 1.328125 -2.5 C 1.328125 -2.113281 1.394531 -1.78125 1.53125 -1.5 C 1.664062 -1.226562 1.851562 -1.019531 2.09375 -0.875 C 2.34375 -0.726562 2.632812 -0.65625 2.96875 -0.65625 C 3.1875 -0.65625 3.378906 -0.6875 3.546875 -0.75 C 3.722656 -0.8125 3.875 -0.90625 4 -1.03125 C 4.132812 -1.15625 4.234375 -1.3125 4.296875 -1.5 L 5.125 -1.3125 C 5.050781 -1.03125 4.910156 -0.78125 4.703125 -0.5625 C 4.503906 -0.351562 4.253906 -0.1875 3.953125 -0.0625 C 3.660156 0.0507812 3.328125 0.109375 2.953125 0.109375 Z M 2.953125 0.109375 "/></g></g></g><g fill="#ffffff" fill-opacity="1"><g transform="translate(88.814268, 58.059583)"><g><path d="M 2.90625 0.109375 C 2.414062 0.109375 1.988281 -0.00390625 1.625 -0.234375 C 1.257812 -0.460938 0.972656 -0.785156 0.765625 -1.203125 C 0.566406 -1.617188 0.46875 -2.097656 0.46875 -2.640625 C 0.46875 -3.191406 0.566406 -3.675781 0.765625 -4.09375 C 0.972656 -4.507812 1.257812 -4.832031 1.625 -5.0625 C 1.988281 -5.289062 2.414062 -5.40625 2.90625 -5.40625 C 3.175781 -5.40625 3.425781 -5.367188 3.65625 -5.296875 C 3.894531 -5.234375 4.109375 -5.132812 4.296875 -5 C 4.484375 -4.863281 4.644531 -4.695312 4.78125 -4.5 C 4.914062 -4.3125 5.015625 -4.097656 5.078125 -3.859375 L 4.25 -3.671875 C 4.21875 -3.816406 4.160156 -3.945312 4.078125 -4.0625 C 3.992188 -4.175781 3.894531 -4.273438 3.78125 -4.359375 C 3.675781 -4.453125 3.546875 -4.519531 3.390625 -4.5625 C 3.242188 -4.613281 3.082031 -4.640625 2.90625 -4.640625 C 2.550781 -4.640625 2.257812 -4.546875 2.03125 -4.359375 C 1.800781 -4.179688 1.628906 -3.941406 1.515625 -3.640625 C 1.398438 -3.335938 1.34375 -3.003906 1.34375 -2.640625 C 1.34375 -2.273438 1.398438 -1.941406 1.515625 -1.640625 C 1.628906 -1.335938 1.800781 -1.097656 2.03125 -0.921875 C 2.257812 -0.742188 2.550781 -0.65625 2.90625 -0.65625 C 3.082031 -0.65625 3.242188 -0.675781 3.390625 -0.71875 C 3.546875 -0.769531 3.679688 -0.835938 3.796875 -0.921875 C 3.910156 -1.015625 4.003906 -1.125 4.078125 -1.25 C 4.160156 -1.375 4.222656 -1.507812 4.265625 -1.65625 L 5.09375 -1.46875 C 5.03125 -1.226562 4.929688 -1.007812 4.796875 -0.8125 C 4.660156 -0.625 4.492188 -0.457031 4.296875 -0.3125 C 4.109375 -0.175781 3.894531 -0.0703125 3.65625 0 C 3.425781 0.0703125 3.175781 0.109375 2.90625 0.109375 Z M 2.90625 0.109375 "/></g></g></g><g fill="#ffffff" fill-opacity="1"><g transform="translate(101.353442, 58.059583)"><g><path d="M 2.875 -5.328125 L 2.875 -4.59375 L 0.09375 -4.59375 L 0.09375 -5.328125 Z M 0.921875 -6.640625 L 1.78125 -6.640625 L 1.78125 -1.359375 C 1.78125 -1.128906 1.828125 -0.960938 1.921875 -0.859375 C 2.015625 -0.753906 2.175781 -0.703125 2.40625 -0.703125 C 2.457031 -0.703125 2.523438 -0.707031 2.609375 -0.71875 C 2.703125 -0.726562 2.785156 -0.738281 2.859375 -0.75 L 3 -0.03125 C 2.90625 0 2.800781 0.0195312 2.6875 0.03125 C 2.582031 0.0390625 2.472656 0.046875 2.359375 0.046875 C 1.898438 0.046875 1.546875 -0.0664062 1.296875 -0.296875 C 1.046875 -0.535156 0.921875 -0.867188 0.921875 -1.296875 Z M 0.921875 -6.640625 "/></g></g></g><g fill="#ffffff" fill-opacity="1"><g transform="translate(111.552284, 58.059583)"><g><path d="M 2.5625 0.078125 C 2.207031 0.078125 1.890625 0.00390625 1.609375 -0.140625 C 1.335938 -0.296875 1.125 -0.523438 0.96875 -0.828125 C 0.8125 -1.128906 0.734375 -1.503906 0.734375 -1.953125 L 0.734375 -5.328125 L 1.59375 -5.328125 L 1.59375 -2.03125 C 1.59375 -1.613281 1.695312 -1.285156 1.90625 -1.046875 C 2.125 -0.816406 2.425781 -0.703125 2.8125 -0.703125 C 3.0625 -0.703125 3.285156 -0.753906 3.484375 -0.859375 C 3.691406 -0.972656 3.851562 -1.140625 3.96875 -1.359375 C 4.09375 -1.578125 4.15625 -1.84375 4.15625 -2.15625 L 4.15625 -5.328125 L 5.015625 -5.328125 L 5.015625 0 L 4.1875 0 L 4.1875 -1.296875 L 4.328125 -1.296875 C 4.160156 -0.796875 3.921875 -0.441406 3.609375 -0.234375 C 3.304688 -0.0234375 2.957031 0.078125 2.5625 0.078125 Z M 2.5625 0.078125 "/></g></g></g><g fill="#ffffff" fill-opacity="1"><g transform="translate(124.298959, 58.059583)"><g><path d="M 0.734375 0 L 0.734375 -5.328125 L 1.5625 -5.328125 L 1.5625 -4.515625 L 1.609375 -4.515625 C 1.703125 -4.785156 1.867188 -5 2.109375 -5.15625 C 2.359375 -5.320312 2.644531 -5.40625 2.96875 -5.40625 C 3.03125 -5.40625 3.101562 -5.40625 3.1875 -5.40625 C 3.269531 -5.40625 3.335938 -5.398438 3.390625 -5.390625 L 3.390625 -4.53125 C 3.359375 -4.539062 3.289062 -4.550781 3.1875 -4.5625 C 3.09375 -4.570312 2.988281 -4.578125 2.875 -4.578125 C 2.625 -4.578125 2.398438 -4.523438 2.203125 -4.421875 C 2.015625 -4.316406 1.863281 -4.171875 1.75 -3.984375 C 1.644531 -3.796875 1.59375 -3.578125 1.59375 -3.328125 L 1.59375 0 Z M 0.734375 0 "/></g></g></g><g fill="#ffffff" fill-opacity="1"><g transform="translate(134.898306, 58.059583)"><g><path d="M 2.953125 0.109375 C 2.441406 0.109375 2 -0.00390625 1.625 -0.234375 C 1.25 -0.460938 0.960938 -0.78125 0.765625 -1.1875 C 0.566406 -1.601562 0.46875 -2.082031 0.46875 -2.625 C 0.46875 -3.175781 0.566406 -3.660156 0.765625 -4.078125 C 0.960938 -4.492188 1.242188 -4.816406 1.609375 -5.046875 C 1.972656 -5.285156 2.394531 -5.40625 2.875 -5.40625 C 3.175781 -5.40625 3.460938 -5.351562 3.734375 -5.25 C 4.015625 -5.15625 4.265625 -5 4.484375 -4.78125 C 4.710938 -4.5625 4.890625 -4.28125 5.015625 -3.9375 C 5.148438 -3.59375 5.21875 -3.1875 5.21875 -2.71875 L 5.21875 -2.390625 L 1.03125 -2.390625 L 1.03125 -3.109375 L 4.75 -3.109375 L 4.359375 -2.84375 C 4.359375 -3.195312 4.300781 -3.507812 4.1875 -3.78125 C 4.070312 -4.050781 3.90625 -4.257812 3.6875 -4.40625 C 3.46875 -4.5625 3.195312 -4.640625 2.875 -4.640625 C 2.550781 -4.640625 2.273438 -4.5625 2.046875 -4.40625 C 1.816406 -4.257812 1.640625 -4.054688 1.515625 -3.796875 C 1.390625 -3.546875 1.328125 -3.265625 1.328125 -2.953125 L 1.328125 -2.5 C 1.328125 -2.113281 1.394531 -1.78125 1.53125 -1.5 C 1.664062 -1.226562 1.851562 -1.019531 2.09375 -0.875 C 2.34375 -0.726562 2.632812 -0.65625 2.96875 -0.65625 C 3.1875 -0.65625 3.378906 -0.6875 3.546875 -0.75 C 3.722656 -0.8125 3.875 -0.90625 4 -1.03125 C 4.132812 -1.15625 4.234375 -1.3125 4.296875 -1.5 L 5.125 -1.3125 C 5.050781 -1.03125 4.910156 -0.78125 4.703125 -0.5625 C 4.503906 -0.351562 4.253906 -0.1875 3.953125 -0.0625 C 3.660156 0.0507812 3.328125 0.109375 2.953125 0.109375 Z M 2.953125 0.109375 "/></g></g></g><g clip-path="url(#613304254e)"><g transform="matrix(1, 0, 0, 1, 68, 0.000000000000000912)"><g clip-path="url(#fe67535687)"><g clip-path="url(#47ed402bcf)"><path fill="#ffffff" d="M 0.902344 0 L 30.746094 0 L 30.746094 46.046875 L 0.902344 46.046875 Z M 0.902344 0 " fill-opacity="1" fill-rule="nonzero"/></g></g></g></g><g fill="#000000" fill-opacity="1"><g transform="translate(78.93482, 29.65909)"><g><path d="M 8.90625 -3.375 C 8.90625 -2.257812 8.5 -1.390625 7.6875 -0.765625 C 6.882812 -0.140625 5.785156 0.171875 4.390625 0.171875 C 2.890625 0.171875 1.734375 -0.0195312 0.921875 -0.40625 L 0.921875 -1.828125 C 1.441406 -1.609375 2.007812 -1.4375 2.625 -1.3125 C 3.238281 -1.1875 3.847656 -1.125 4.453125 -1.125 C 5.429688 -1.125 6.171875 -1.304688 6.671875 -1.671875 C 7.171875 -2.046875 7.421875 -2.566406 7.421875 -3.234375 C 7.421875 -3.671875 7.332031 -4.03125 7.15625 -4.3125 C 6.976562 -4.59375 6.679688 -4.851562 6.265625 -5.09375 C 5.847656 -5.332031 5.21875 -5.601562 4.375 -5.90625 C 3.195312 -6.320312 2.351562 -6.820312 1.84375 -7.40625 C 1.332031 -7.988281 1.078125 -8.742188 1.078125 -9.671875 C 1.078125 -10.648438 1.445312 -11.425781 2.1875 -12 C 2.925781 -12.582031 3.898438 -12.875 5.109375 -12.875 C 6.367188 -12.875 7.53125 -12.644531 8.59375 -12.1875 L 8.125 -10.890625 C 7.082031 -11.335938 6.066406 -11.5625 5.078125 -11.5625 C 4.285156 -11.5625 3.671875 -11.390625 3.234375 -11.046875 C 2.796875 -10.710938 2.578125 -10.25 2.578125 -9.65625 C 2.578125 -9.21875 2.65625 -8.859375 2.8125 -8.578125 C 2.976562 -8.296875 3.253906 -8.035156 3.640625 -7.796875 C 4.023438 -7.566406 4.613281 -7.3125 5.40625 -7.03125 C 6.738281 -6.550781 7.65625 -6.039062 8.15625 -5.5 C 8.65625 -4.957031 8.90625 -4.25 8.90625 -3.375 Z M 8.90625 -3.375 "/></g></g></g><g clip-path="url(#0cd758e391)"><g transform="matrix(1, 0, 0, 1, 100, 0.000000000000000912)"><g clip-path="url(#fc16218295)"><g clip-path="url(#b68f57c2a9)"><path fill="#ffffff" d="M 0.96875 0 L 30.8125 0 L 30.8125 46.046875 L 0.96875 46.046875 Z M 0.96875 0 " fill-opacity="1" fill-rule="nonzero"/></g></g></g></g><g fill="#000000" fill-opacity="1"><g transform="translate(110.932432, 29.65909)"><g><path d="M 8.828125 0 L 1.75 0 L 1.75 -12.6875 L 8.828125 -12.6875 L 8.828125 -11.375 L 3.21875 -11.375 L 3.21875 -7.296875 L 8.484375 -7.296875 L 8.484375 -5.984375 L 3.21875 -5.984375 L 3.21875 -1.3125 L 8.828125 -1.3125 Z M 8.828125 0 "/></g></g></g><g clip-path="url(#c142156579)"><g transform="matrix(1, 0, 0, 1, 133, 0.000000000000000912)"><g clip-path="url(#d79f93d888)"><g clip-path="url(#116bf1c153)"><path fill="#ffffff" d="M 0.0351562 0 L 29.878906 0 L 29.878906 46.046875 L 0.0351562 46.046875 Z M 0.0351562 0 " fill-opacity="1" fill-rule="nonzero"/></g></g></g></g><g fill="#000000" fill-opacity="1"><g transform="translate(142.455039, 29.65909)"><g><path d="M 3.21875 -5.28125 L 3.21875 0 L 1.75 0 L 1.75 -12.6875 L 5.234375 -12.6875 C 6.785156 -12.6875 7.929688 -12.390625 8.671875 -11.796875 C 9.421875 -11.203125 9.796875 -10.304688 9.796875 -9.109375 C 9.796875 -7.429688 8.941406 -6.296875 7.234375 -5.703125 L 10.6875 0 L 8.9375 0 L 5.875 -5.28125 Z M 3.21875 -6.546875 L 5.25 -6.546875 C 6.289062 -6.546875 7.050781 -6.75 7.53125 -7.15625 C 8.019531 -7.570312 8.265625 -8.195312 8.265625 -9.03125 C 8.265625 -9.863281 8.015625 -10.46875 7.515625 -10.84375 C 7.023438 -11.21875 6.234375 -11.40625 5.140625 -11.40625 L 3.21875 -11.40625 Z M 3.21875 -6.546875 "/></g></g></g><g clip-path="url(#d5300a4d09)"><g transform="matrix(1, 0, 0, 1, 165, 0.000000000000000912)"><g clip-path="url(#08312b0ad8)"><g clip-path="url(#d5c803e2aa)"><path fill="#ffffff" d="M 0.101562 0 L 29.945312 0 L 29.945312 46.046875 L 0.101562 46.046875 Z M 0.101562 0 " fill-opacity="1" fill-rule="nonzero"/></g></g></g></g><g fill="#000000" fill-opacity="1"><g transform="translate(174.719116, 29.65909)"><g><path d="M 9 -12.6875 L 10.578125 -12.6875 L 6.015625 0 L 4.546875 0 L 0 -12.6875 L 1.5625 -12.6875 L 4.484375 -4.484375 C 4.816406 -3.535156 5.082031 -2.617188 5.28125 -1.734375 C 5.488281 -2.671875 5.757812 -3.601562 6.09375 -4.53125 Z M 9 -12.6875 "/></g></g></g><g clip-path="url(#fcc9a841a0)"><g transform="matrix(1, 0, 0, 1, 197, 0.000000000000000912)"><g clip-path="url(#0bc9257b94)"><g clip-path="url(#89a75b86d5)"><path fill="#ffffff" d="M 0.171875 0 L 30.011719 0 L 30.011719 46.046875 L 0.171875 46.046875 Z M 0.171875 0 " fill-opacity="1" fill-rule="nonzero"/></g></g></g></g><g fill="#000000" fill-opacity="1"><g transform="translate(205.15266, 29.65909)"><g><path d="M 12.765625 -6.359375 C 12.765625 -4.328125 12.25 -2.726562 11.21875 -1.5625 C 10.195312 -0.40625 8.769531 0.171875 6.9375 0.171875 C 5.0625 0.171875 3.613281 -0.394531 2.59375 -1.53125 C 1.582031 -2.675781 1.078125 -4.289062 1.078125 -6.375 C 1.078125 -8.445312 1.585938 -10.050781 2.609375 -11.1875 C 3.628906 -12.320312 5.078125 -12.890625 6.953125 -12.890625 C 8.773438 -12.890625 10.195312 -12.3125 11.21875 -11.15625 C 12.25 -10 12.765625 -8.398438 12.765625 -6.359375 Z M 2.640625 -6.359375 C 2.640625 -4.640625 3.003906 -3.335938 3.734375 -2.453125 C 4.472656 -1.566406 5.539062 -1.125 6.9375 -1.125 C 8.34375 -1.125 9.40625 -1.566406 10.125 -2.453125 C 10.84375 -3.335938 11.203125 -4.640625 11.203125 -6.359375 C 11.203125 -8.066406 10.84375 -9.363281 10.125 -10.25 C 9.414062 -11.132812 8.359375 -11.578125 6.953125 -11.578125 C 5.546875 -11.578125 4.472656 -11.128906 3.734375 -10.234375 C 3.003906 -9.347656 2.640625 -8.054688 2.640625 -6.359375 Z M 2.640625 -6.359375 "/></g></g></g><g clip-path="url(#a91855df2d)"><g transform="matrix(1, 0, 0, 1, 229, 0.000000000000000912)"><g clip-path="url(#9f3b5c551a)"><g clip-path="url(#bf87a1dfbb)"><path fill="#ffffff" d="M 0.238281 0 L 30.078125 0 L 30.078125 46.046875 L 0.238281 46.046875 Z M 0.238281 0 " fill-opacity="1" fill-rule="nonzero"/></g></g></g></g><g fill="#000000" fill-opacity="1"><g transform="translate(241.668646, 29.65909)"><g><path d="M 1.75 0 L 1.75 -12.6875 L 3.21875 -12.6875 L 3.21875 0 Z M 1.75 0 "/></g></g></g><g clip-path="url(#38cc2649d2)"><g transform="matrix(1, 0, 0, 1, 261, 0.000000000000000912)"><g clip-path="url(#713bb0c1cc)"><g clip-path="url(#c8e28989c7)"><path fill="#ffffff" d="M 0.304688 0 L 30.148438 0 L 30.148438 46.046875 L 0.304688 46.046875 Z M 0.304688 0 " fill-opacity="1" fill-rule="nonzero"/></g></g></g></g><g fill="#000000" fill-opacity="1"><g transform="translate(270.723517, 29.65909)"><g><path d="M 3.21875 -5.28125 L 3.21875 0 L 1.75 0 L 1.75 -12.6875 L 5.234375 -12.6875 C 6.785156 -12.6875 7.929688 -12.390625 8.671875 -11.796875 C 9.421875 -11.203125 9.796875 -10.304688 9.796875 -9.109375 C 9.796875 -7.429688 8.941406 -6.296875 7.234375 -5.703125 L 10.6875 0 L 8.9375 0 L 5.875 -5.28125 Z M 3.21875 -6.546875 L 5.25 -6.546875 C 6.289062 -6.546875 7.050781 -6.75 7.53125 -7.15625 C 8.019531 -7.570312 8.265625 -8.195312 8.265625 -9.03125 C 8.265625 -9.863281 8.015625 -10.46875 7.515625 -10.84375 C 7.023438 -11.21875 6.234375 -11.40625 5.140625 -11.40625 L 3.21875 -11.40625 Z M 3.21875 -6.546875 "/></g></g></g></svg>