<svg xmlns="http://www.w3.org/2000/svg" xmlns:xlink="http://www.w3.org/1999/xlink" width="335" zoomAndPan="magnify" viewBox="0 0 251.25 55.5" height="74" preserveAspectRatio="xMidYMid meet" version="1.0"><defs><g/><clipPath id="688ac32541"><path d="M 3.578125 0 L 29.3125 0 L 29.3125 39.511719 L 3.578125 39.511719 Z M 3.578125 0 " clip-rule="nonzero"/></clipPath><clipPath id="81be7b351b"><path d="M 0.578125 0 L 26.3125 0 L 26.3125 39.511719 L 0.578125 39.511719 Z M 0.578125 0 " clip-rule="nonzero"/></clipPath><clipPath id="6683980afb"><rect x="0" width="27" y="0" height="40"/></clipPath><clipPath id="c08351b154"><path d="M 31.21875 0 L 56.804688 0 L 56.804688 39.511719 L 31.21875 39.511719 Z M 31.21875 0 " clip-rule="nonzero"/></clipPath><clipPath id="5d846acf8f"><path d="M 0.21875 0 L 25.804688 0 L 25.804688 39.511719 L 0.21875 39.511719 Z M 0.21875 0 " clip-rule="nonzero"/></clipPath><clipPath id="134da1b5da"><rect x="0" width="26" y="0" height="40"/></clipPath><clipPath id="183318986c"><path d="M 0.367188 3 L 5 3 L 5 8 L 0.367188 8 Z M 0.367188 3 " clip-rule="nonzero"/></clipPath><clipPath id="13dcd49d5b"><rect x="0" width="121" y="0" height="11"/></clipPath><clipPath id="971ca729c1"><path d="M 58.710938 0 L 84.292969 0 L 84.292969 39.511719 L 58.710938 39.511719 Z M 58.710938 0 " clip-rule="nonzero"/></clipPath><clipPath id="7ad5c22637"><path d="M 0.710938 0 L 26.292969 0 L 26.292969 39.511719 L 0.710938 39.511719 Z M 0.710938 0 " clip-rule="nonzero"/></clipPath><clipPath id="db4387a700"><rect x="0" width="27" y="0" height="40"/></clipPath><clipPath id="ec7d7e1d99"><path d="M 86.203125 0 L 111.785156 0 L 111.785156 39.511719 L 86.203125 39.511719 Z M 86.203125 0 " clip-rule="nonzero"/></clipPath><clipPath id="4e3d3ecec9"><path d="M 0.203125 0 L 25.785156 0 L 25.785156 39.511719 L 0.203125 39.511719 Z M 0.203125 0 " clip-rule="nonzero"/></clipPath><clipPath id="a570cdc3dd"><rect x="0" width="26" y="0" height="40"/></clipPath><clipPath id="f2909a1670"><path d="M 113.695312 0 L 139.277344 0 L 139.277344 39.511719 L 113.695312 39.511719 Z M 113.695312 0 " clip-rule="nonzero"/></clipPath><clipPath id="bc24adc442"><path d="M 0.695312 0 L 26.277344 0 L 26.277344 39.511719 L 0.695312 39.511719 Z M 0.695312 0 " clip-rule="nonzero"/></clipPath><clipPath id="8a4fcd90f7"><rect x="0" width="27" y="0" height="40"/></clipPath><clipPath id="cfd3569a6d"><path d="M 141.183594 0 L 166.769531 0 L 166.769531 39.511719 L 141.183594 39.511719 Z M 141.183594 0 " clip-rule="nonzero"/></clipPath><clipPath id="122fecf17c"><path d="M 0.183594 0 L 25.769531 0 L 25.769531 39.511719 L 0.183594 39.511719 Z M 0.183594 0 " clip-rule="nonzero"/></clipPath><clipPath id="6e3c2aca8c"><rect x="0" width="26" y="0" height="40"/></clipPath><clipPath id="649760b6dd"><path d="M 168.675781 0 L 194.261719 0 L 194.261719 39.511719 L 168.675781 39.511719 Z M 168.675781 0 " clip-rule="nonzero"/></clipPath><clipPath id="1c1e7dd15f"><path d="M 0.675781 0 L 26.261719 0 L 26.261719 39.511719 L 0.675781 39.511719 Z M 0.675781 0 " clip-rule="nonzero"/></clipPath><clipPath id="f71e6cfa44"><rect x="0" width="27" y="0" height="40"/></clipPath><clipPath id="400ccefd2f"><path d="M 196.167969 0 L 221.753906 0 L 221.753906 39.511719 L 196.167969 39.511719 Z M 196.167969 0 " clip-rule="nonzero"/></clipPath><clipPath id="db724bb432"><path d="M 0.167969 0 L 25.753906 0 L 25.753906 39.511719 L 0.167969 39.511719 Z M 0.167969 0 " clip-rule="nonzero"/></clipPath><clipPath id="0eeeb92c6e"><rect x="0" width="26" y="0" height="40"/></clipPath><clipPath id="926b59fb62"><path d="M 223.660156 0 L 249.246094 0 L 249.246094 39.511719 L 223.660156 39.511719 Z M 223.660156 0 " clip-rule="nonzero"/></clipPath><clipPath id="5b40c03d60"><path d="M 0.660156 0 L 26.246094 0 L 26.246094 39.511719 L 0.660156 39.511719 Z M 0.660156 0 " clip-rule="nonzero"/></clipPath><clipPath id="a2a6ec6351"><rect x="0" width="27" y="0" height="40"/></clipPath></defs><g clip-path="url(#688ac32541)"><g transform="matrix(1, 0, 0, 1, 3, -0.000000000000005846)"><g clip-path="url(#6683980afb)"><g clip-path="url(#81be7b351b)"><path fill="#000000" d="M 0.578125 0 L 26.3125 0 L 26.3125 39.503906 L 0.578125 39.503906 Z M 0.578125 0 " fill-opacity="1" fill-rule="nonzero"/></g></g></g></g><g fill="#ffffff" fill-opacity="1"><g transform="translate(10.720573, 26.015625)"><g><path d="M 1.5 0 L 1.5 -12.984375 L 6.03125 -12.984375 C 7.019531 -12.984375 7.84375 -12.8125 8.5 -12.46875 C 9.15625 -12.132812 9.644531 -11.664062 9.96875 -11.0625 C 10.289062 -10.457031 10.453125 -9.765625 10.453125 -8.984375 C 10.453125 -8.203125 10.285156 -7.515625 9.953125 -6.921875 C 9.628906 -6.328125 9.140625 -5.863281 8.484375 -5.53125 C 7.828125 -5.207031 7.003906 -5.046875 6.015625 -5.046875 L 2.421875 -5.046875 L 2.421875 -6.515625 L 5.96875 -6.515625 C 6.632812 -6.515625 7.175781 -6.613281 7.59375 -6.8125 C 8.007812 -7.007812 8.316406 -7.289062 8.515625 -7.65625 C 8.722656 -8.03125 8.828125 -8.472656 8.828125 -8.984375 C 8.828125 -9.503906 8.722656 -9.953125 8.515625 -10.328125 C 8.316406 -10.710938 8.007812 -11.007812 7.59375 -11.21875 C 7.175781 -11.4375 6.628906 -11.546875 5.953125 -11.546875 L 3.140625 -11.546875 L 3.140625 0 Z M 8.984375 0 L 5.84375 -5.84375 L 7.6875 -5.84375 L 10.875 0 Z M 8.984375 0 "/></g></g></g><g clip-path="url(#c08351b154)"><g transform="matrix(1, 0, 0, 1, 31, -0.000000000000005846)"><g clip-path="url(#134da1b5da)"><g clip-path="url(#5d846acf8f)"><path fill="#000000" d="M 0.21875 0 L 25.804688 0 L 25.804688 39.476562 L 0.21875 39.476562 Z M 0.21875 0 " fill-opacity="1" fill-rule="nonzero"/></g></g></g></g><g fill="#ffffff" fill-opacity="1"><g transform="translate(38.686235, 26.015625)"><g><path d="M 1.5 0 L 1.5 -12.984375 L 9.53125 -12.984375 L 9.53125 -11.53125 L 3.140625 -11.53125 L 3.140625 -7.296875 L 9.09375 -7.296875 L 9.09375 -5.84375 L 3.140625 -5.84375 L 3.140625 -1.453125 L 9.59375 -1.453125 L 9.59375 0 Z M 1.5 0 "/></g></g></g><g transform="matrix(1, 0, 0, 1, 3, 42)"><g clip-path="url(#13dcd49d5b)"><g clip-path="url(#183318986c)"><g fill="#000000" fill-opacity="1"><g transform="translate(0.57789, 7.775561)"><g><path d="M 1.921875 0.09375 C 1.628906 0.09375 1.363281 0.0390625 1.125 -0.0625 C 0.894531 -0.164062 0.707031 -0.320312 0.5625 -0.53125 C 0.425781 -0.75 0.359375 -1.003906 0.359375 -1.296875 C 0.359375 -1.566406 0.410156 -1.78125 0.515625 -1.9375 C 0.617188 -2.101562 0.753906 -2.234375 0.921875 -2.328125 C 1.097656 -2.421875 1.289062 -2.488281 1.5 -2.53125 C 1.71875 -2.582031 1.929688 -2.625 2.140625 -2.65625 C 2.421875 -2.6875 2.644531 -2.710938 2.8125 -2.734375 C 2.988281 -2.753906 3.113281 -2.785156 3.1875 -2.828125 C 3.269531 -2.878906 3.3125 -2.957031 3.3125 -3.0625 L 3.3125 -3.09375 C 3.3125 -3.28125 3.273438 -3.4375 3.203125 -3.5625 C 3.128906 -3.695312 3.019531 -3.800781 2.875 -3.875 C 2.738281 -3.945312 2.5625 -3.984375 2.34375 -3.984375 C 2.125 -3.984375 1.9375 -3.945312 1.78125 -3.875 C 1.632812 -3.8125 1.507812 -3.726562 1.40625 -3.625 C 1.3125 -3.519531 1.242188 -3.40625 1.203125 -3.28125 L 0.484375 -3.46875 C 0.578125 -3.75 0.71875 -3.972656 0.90625 -4.140625 C 1.101562 -4.304688 1.320312 -4.425781 1.5625 -4.5 C 1.8125 -4.582031 2.066406 -4.625 2.328125 -4.625 C 2.503906 -4.625 2.691406 -4.601562 2.890625 -4.5625 C 3.085938 -4.519531 3.273438 -4.441406 3.453125 -4.328125 C 3.628906 -4.210938 3.769531 -4.050781 3.875 -3.84375 C 3.988281 -3.632812 4.046875 -3.367188 4.046875 -3.046875 L 4.046875 0 L 3.328125 0 L 3.328125 -0.625 L 3.28125 -0.625 C 3.226562 -0.519531 3.144531 -0.410156 3.03125 -0.296875 C 2.914062 -0.179688 2.765625 -0.0859375 2.578125 -0.015625 C 2.398438 0.0546875 2.179688 0.09375 1.921875 0.09375 Z M 2.046875 -0.546875 C 2.328125 -0.546875 2.5625 -0.597656 2.75 -0.703125 C 2.9375 -0.816406 3.078125 -0.957031 3.171875 -1.125 C 3.265625 -1.300781 3.3125 -1.484375 3.3125 -1.671875 L 3.3125 -2.28125 C 3.28125 -2.25 3.21875 -2.21875 3.125 -2.1875 C 3.03125 -2.164062 2.921875 -2.144531 2.796875 -2.125 C 2.671875 -2.101562 2.546875 -2.082031 2.421875 -2.0625 C 2.296875 -2.050781 2.191406 -2.039062 2.109375 -2.03125 C 1.929688 -2.007812 1.765625 -1.96875 1.609375 -1.90625 C 1.460938 -1.851562 1.34375 -1.773438 1.25 -1.671875 C 1.15625 -1.578125 1.109375 -1.441406 1.109375 -1.265625 C 1.109375 -1.109375 1.144531 -0.976562 1.21875 -0.875 C 1.300781 -0.769531 1.410156 -0.6875 1.546875 -0.625 C 1.691406 -0.570312 1.859375 -0.546875 2.046875 -0.546875 Z M 2.046875 -0.546875 "/></g></g></g></g><g fill="#000000" fill-opacity="1"><g transform="translate(11.253492, 7.775561)"><g><path d="M 0.625 0 L 0.625 -4.5625 L 1.328125 -4.5625 L 1.328125 -3.859375 L 1.375 -3.859375 C 1.457031 -4.085938 1.601562 -4.269531 1.8125 -4.40625 C 2.019531 -4.550781 2.257812 -4.625 2.53125 -4.625 C 2.59375 -4.625 2.660156 -4.625 2.734375 -4.625 C 2.804688 -4.625 2.863281 -4.625 2.90625 -4.625 L 2.90625 -3.875 C 2.875 -3.882812 2.816406 -3.894531 2.734375 -3.90625 C 2.648438 -3.914062 2.554688 -3.921875 2.453125 -3.921875 C 2.242188 -3.921875 2.054688 -3.875 1.890625 -3.78125 C 1.722656 -3.695312 1.59375 -3.570312 1.5 -3.40625 C 1.40625 -3.25 1.359375 -3.0625 1.359375 -2.84375 L 1.359375 0 Z M 0.625 0 "/></g></g></g><g fill="#000000" fill-opacity="1"><g transform="translate(20.340509, 7.775561)"><g><path d="M 2.484375 0.09375 C 2.066406 0.09375 1.703125 0 1.390625 -0.1875 C 1.078125 -0.382812 0.832031 -0.660156 0.65625 -1.015625 C 0.488281 -1.378906 0.40625 -1.789062 0.40625 -2.25 C 0.40625 -2.726562 0.488281 -3.144531 0.65625 -3.5 C 0.832031 -3.863281 1.078125 -4.140625 1.390625 -4.328125 C 1.703125 -4.523438 2.066406 -4.625 2.484375 -4.625 C 2.710938 -4.625 2.925781 -4.59375 3.125 -4.53125 C 3.332031 -4.476562 3.515625 -4.394531 3.671875 -4.28125 C 3.835938 -4.164062 3.976562 -4.023438 4.09375 -3.859375 C 4.207031 -3.691406 4.296875 -3.503906 4.359375 -3.296875 L 3.640625 -3.140625 C 3.609375 -3.265625 3.554688 -3.375 3.484375 -3.46875 C 3.421875 -3.570312 3.335938 -3.660156 3.234375 -3.734375 C 3.140625 -3.804688 3.03125 -3.863281 2.90625 -3.90625 C 2.78125 -3.945312 2.640625 -3.96875 2.484375 -3.96875 C 2.179688 -3.96875 1.929688 -3.890625 1.734375 -3.734375 C 1.535156 -3.578125 1.382812 -3.367188 1.28125 -3.109375 C 1.1875 -2.859375 1.140625 -2.570312 1.140625 -2.25 C 1.140625 -1.945312 1.1875 -1.664062 1.28125 -1.40625 C 1.382812 -1.144531 1.535156 -0.9375 1.734375 -0.78125 C 1.929688 -0.632812 2.179688 -0.5625 2.484375 -0.5625 C 2.640625 -0.5625 2.78125 -0.582031 2.90625 -0.625 C 3.039062 -0.664062 3.15625 -0.722656 3.25 -0.796875 C 3.351562 -0.867188 3.4375 -0.957031 3.5 -1.0625 C 3.570312 -1.175781 3.625 -1.296875 3.65625 -1.421875 L 4.359375 -1.265625 C 4.304688 -1.054688 4.222656 -0.867188 4.109375 -0.703125 C 3.992188 -0.535156 3.851562 -0.390625 3.6875 -0.265625 C 3.519531 -0.148438 3.332031 -0.0625 3.125 0 C 2.925781 0.0625 2.710938 0.09375 2.484375 0.09375 Z M 2.484375 0.09375 "/></g></g></g><g fill="#000000" fill-opacity="1"><g transform="translate(31.090576, 7.775561)"><g><path d="M 1.359375 -2.71875 L 1.359375 0 L 0.625 0 L 0.625 -6.15625 L 1.359375 -6.15625 L 1.359375 -3.46875 L 1.21875 -3.46875 C 1.351562 -3.882812 1.550781 -4.179688 1.8125 -4.359375 C 2.070312 -4.535156 2.375 -4.625 2.71875 -4.625 C 3.03125 -4.625 3.304688 -4.5625 3.546875 -4.4375 C 3.785156 -4.3125 3.96875 -4.117188 4.09375 -3.859375 C 4.226562 -3.597656 4.296875 -3.273438 4.296875 -2.890625 L 4.296875 0 L 3.5625 0 L 3.5625 -2.828125 C 3.5625 -3.179688 3.46875 -3.457031 3.28125 -3.65625 C 3.09375 -3.863281 2.835938 -3.96875 2.515625 -3.96875 C 2.296875 -3.96875 2.097656 -3.921875 1.921875 -3.828125 C 1.753906 -3.734375 1.617188 -3.59375 1.515625 -3.40625 C 1.410156 -3.21875 1.359375 -2.988281 1.359375 -2.71875 Z M 1.359375 -2.71875 "/></g></g></g><g fill="#000000" fill-opacity="1"><g transform="translate(42.018537, 7.775561)"><g><path d="M 0.625 0 L 0.625 -4.5625 L 1.359375 -4.5625 L 1.359375 0 Z M 0.984375 -5.34375 C 0.847656 -5.34375 0.726562 -5.390625 0.625 -5.484375 C 0.53125 -5.578125 0.484375 -5.691406 0.484375 -5.828125 C 0.484375 -5.960938 0.53125 -6.078125 0.625 -6.171875 C 0.726562 -6.273438 0.847656 -6.328125 0.984375 -6.328125 C 1.128906 -6.328125 1.25 -6.273438 1.34375 -6.171875 C 1.445312 -6.078125 1.5 -5.960938 1.5 -5.828125 C 1.5 -5.691406 1.445312 -5.578125 1.34375 -5.484375 C 1.25 -5.390625 1.128906 -5.34375 0.984375 -5.34375 Z M 0.984375 -5.34375 "/></g></g></g><g fill="#000000" fill-opacity="1"><g transform="translate(50.005128, 7.775561)"><g><path d="M 2.46875 -4.5625 L 2.46875 -3.9375 L 0.078125 -3.9375 L 0.078125 -4.5625 Z M 0.796875 -5.6875 L 1.53125 -5.6875 L 1.53125 -1.171875 C 1.53125 -0.972656 1.566406 -0.828125 1.640625 -0.734375 C 1.722656 -0.648438 1.863281 -0.609375 2.0625 -0.609375 C 2.113281 -0.609375 2.175781 -0.609375 2.25 -0.609375 C 2.320312 -0.617188 2.382812 -0.628906 2.4375 -0.640625 L 2.5625 -0.015625 C 2.488281 0.00390625 2.398438 0.0195312 2.296875 0.03125 C 2.203125 0.0390625 2.113281 0.046875 2.03125 0.046875 C 1.632812 0.046875 1.328125 -0.0507812 1.109375 -0.25 C 0.898438 -0.457031 0.796875 -0.742188 0.796875 -1.109375 Z M 0.796875 -5.6875 "/></g></g></g><g fill="#000000" fill-opacity="1"><g transform="translate(58.748784, 7.775561)"><g><path d="M 2.53125 0.09375 C 2.09375 0.09375 1.710938 -0.00390625 1.390625 -0.203125 C 1.066406 -0.398438 0.820312 -0.675781 0.65625 -1.03125 C 0.488281 -1.382812 0.40625 -1.789062 0.40625 -2.25 C 0.40625 -2.71875 0.488281 -3.128906 0.65625 -3.484375 C 0.820312 -3.847656 1.0625 -4.128906 1.375 -4.328125 C 1.6875 -4.523438 2.046875 -4.625 2.453125 -4.625 C 2.710938 -4.625 2.960938 -4.582031 3.203125 -4.5 C 3.441406 -4.414062 3.65625 -4.28125 3.84375 -4.09375 C 4.039062 -3.90625 4.191406 -3.664062 4.296875 -3.375 C 4.410156 -3.082031 4.46875 -2.734375 4.46875 -2.328125 L 4.46875 -2.046875 L 0.875 -2.046875 L 0.875 -2.65625 L 4.0625 -2.65625 L 3.734375 -2.4375 C 3.734375 -2.738281 3.679688 -3.003906 3.578125 -3.234375 C 3.484375 -3.460938 3.34375 -3.644531 3.15625 -3.78125 C 2.96875 -3.914062 2.734375 -3.984375 2.453125 -3.984375 C 2.179688 -3.984375 1.945312 -3.914062 1.75 -3.78125 C 1.550781 -3.644531 1.398438 -3.46875 1.296875 -3.25 C 1.191406 -3.03125 1.140625 -2.789062 1.140625 -2.53125 L 1.140625 -2.140625 C 1.140625 -1.804688 1.195312 -1.519531 1.3125 -1.28125 C 1.425781 -1.050781 1.585938 -0.875 1.796875 -0.75 C 2.015625 -0.625 2.257812 -0.5625 2.53125 -0.5625 C 2.71875 -0.5625 2.882812 -0.585938 3.03125 -0.640625 C 3.1875 -0.691406 3.316406 -0.769531 3.421875 -0.875 C 3.535156 -0.988281 3.617188 -1.125 3.671875 -1.28125 L 4.390625 -1.125 C 4.316406 -0.882812 4.195312 -0.671875 4.03125 -0.484375 C 3.863281 -0.296875 3.648438 -0.148438 3.390625 -0.046875 C 3.140625 0.046875 2.851562 0.09375 2.53125 0.09375 Z M 2.53125 0.09375 "/></g></g></g><g fill="#000000" fill-opacity="1"><g transform="translate(69.602279, 7.775561)"><g><path d="M 2.484375 0.09375 C 2.066406 0.09375 1.703125 0 1.390625 -0.1875 C 1.078125 -0.382812 0.832031 -0.660156 0.65625 -1.015625 C 0.488281 -1.378906 0.40625 -1.789062 0.40625 -2.25 C 0.40625 -2.726562 0.488281 -3.144531 0.65625 -3.5 C 0.832031 -3.863281 1.078125 -4.140625 1.390625 -4.328125 C 1.703125 -4.523438 2.066406 -4.625 2.484375 -4.625 C 2.710938 -4.625 2.925781 -4.59375 3.125 -4.53125 C 3.332031 -4.476562 3.515625 -4.394531 3.671875 -4.28125 C 3.835938 -4.164062 3.976562 -4.023438 4.09375 -3.859375 C 4.207031 -3.691406 4.296875 -3.503906 4.359375 -3.296875 L 3.640625 -3.140625 C 3.609375 -3.265625 3.554688 -3.375 3.484375 -3.46875 C 3.421875 -3.570312 3.335938 -3.660156 3.234375 -3.734375 C 3.140625 -3.804688 3.03125 -3.863281 2.90625 -3.90625 C 2.78125 -3.945312 2.640625 -3.96875 2.484375 -3.96875 C 2.179688 -3.96875 1.929688 -3.890625 1.734375 -3.734375 C 1.535156 -3.578125 1.382812 -3.367188 1.28125 -3.109375 C 1.1875 -2.859375 1.140625 -2.570312 1.140625 -2.25 C 1.140625 -1.945312 1.1875 -1.664062 1.28125 -1.40625 C 1.382812 -1.144531 1.535156 -0.9375 1.734375 -0.78125 C 1.929688 -0.632812 2.179688 -0.5625 2.484375 -0.5625 C 2.640625 -0.5625 2.78125 -0.582031 2.90625 -0.625 C 3.039062 -0.664062 3.15625 -0.722656 3.25 -0.796875 C 3.351562 -0.867188 3.4375 -0.957031 3.5 -1.0625 C 3.570312 -1.175781 3.625 -1.296875 3.65625 -1.421875 L 4.359375 -1.265625 C 4.304688 -1.054688 4.222656 -0.867188 4.109375 -0.703125 C 3.992188 -0.535156 3.851562 -0.390625 3.6875 -0.265625 C 3.519531 -0.148438 3.332031 -0.0625 3.125 0 C 2.925781 0.0625 2.710938 0.09375 2.484375 0.09375 Z M 2.484375 0.09375 "/></g></g></g><g fill="#000000" fill-opacity="1"><g transform="translate(80.352346, 7.775561)"><g><path d="M 2.46875 -4.5625 L 2.46875 -3.9375 L 0.078125 -3.9375 L 0.078125 -4.5625 Z M 0.796875 -5.6875 L 1.53125 -5.6875 L 1.53125 -1.171875 C 1.53125 -0.972656 1.566406 -0.828125 1.640625 -0.734375 C 1.722656 -0.648438 1.863281 -0.609375 2.0625 -0.609375 C 2.113281 -0.609375 2.175781 -0.609375 2.25 -0.609375 C 2.320312 -0.617188 2.382812 -0.628906 2.4375 -0.640625 L 2.5625 -0.015625 C 2.488281 0.00390625 2.398438 0.0195312 2.296875 0.03125 C 2.203125 0.0390625 2.113281 0.046875 2.03125 0.046875 C 1.632812 0.046875 1.328125 -0.0507812 1.109375 -0.25 C 0.898438 -0.457031 0.796875 -0.742188 0.796875 -1.109375 Z M 0.796875 -5.6875 "/></g></g></g><g fill="#000000" fill-opacity="1"><g transform="translate(89.096003, 7.775561)"><g><path d="M 2.203125 0.0625 C 1.890625 0.0625 1.613281 0 1.375 -0.125 C 1.144531 -0.257812 0.960938 -0.453125 0.828125 -0.703125 C 0.691406 -0.960938 0.625 -1.285156 0.625 -1.671875 L 0.625 -4.5625 L 1.359375 -4.5625 L 1.359375 -1.734375 C 1.359375 -1.378906 1.453125 -1.097656 1.640625 -0.890625 C 1.828125 -0.691406 2.082031 -0.59375 2.40625 -0.59375 C 2.625 -0.59375 2.816406 -0.640625 2.984375 -0.734375 C 3.160156 -0.835938 3.300781 -0.976562 3.40625 -1.15625 C 3.507812 -1.34375 3.5625 -1.570312 3.5625 -1.84375 L 3.5625 -4.5625 L 4.296875 -4.5625 L 4.296875 0 L 3.59375 0 L 3.59375 -1.109375 L 3.703125 -1.109375 C 3.566406 -0.679688 3.363281 -0.378906 3.09375 -0.203125 C 2.832031 -0.0234375 2.535156 0.0625 2.203125 0.0625 Z M 2.203125 0.0625 "/></g></g></g><g fill="#000000" fill-opacity="1"><g transform="translate(100.023963, 7.775561)"><g><path d="M 0.625 0 L 0.625 -4.5625 L 1.328125 -4.5625 L 1.328125 -3.859375 L 1.375 -3.859375 C 1.457031 -4.085938 1.601562 -4.269531 1.8125 -4.40625 C 2.019531 -4.550781 2.257812 -4.625 2.53125 -4.625 C 2.59375 -4.625 2.660156 -4.625 2.734375 -4.625 C 2.804688 -4.625 2.863281 -4.625 2.90625 -4.625 L 2.90625 -3.875 C 2.875 -3.882812 2.816406 -3.894531 2.734375 -3.90625 C 2.648438 -3.914062 2.554688 -3.921875 2.453125 -3.921875 C 2.242188 -3.921875 2.054688 -3.875 1.890625 -3.78125 C 1.722656 -3.695312 1.59375 -3.570312 1.5 -3.40625 C 1.40625 -3.25 1.359375 -3.0625 1.359375 -2.84375 L 1.359375 0 Z M 0.625 0 "/></g></g></g><g fill="#000000" fill-opacity="1"><g transform="translate(109.11098, 7.775561)"><g><path d="M 2.53125 0.09375 C 2.09375 0.09375 1.710938 -0.00390625 1.390625 -0.203125 C 1.066406 -0.398438 0.820312 -0.675781 0.65625 -1.03125 C 0.488281 -1.382812 0.40625 -1.789062 0.40625 -2.25 C 0.40625 -2.71875 0.488281 -3.128906 0.65625 -3.484375 C 0.820312 -3.847656 1.0625 -4.128906 1.375 -4.328125 C 1.6875 -4.523438 2.046875 -4.625 2.453125 -4.625 C 2.710938 -4.625 2.960938 -4.582031 3.203125 -4.5 C 3.441406 -4.414062 3.65625 -4.28125 3.84375 -4.09375 C 4.039062 -3.90625 4.191406 -3.664062 4.296875 -3.375 C 4.410156 -3.082031 4.46875 -2.734375 4.46875 -2.328125 L 4.46875 -2.046875 L 0.875 -2.046875 L 0.875 -2.65625 L 4.0625 -2.65625 L 3.734375 -2.4375 C 3.734375 -2.738281 3.679688 -3.003906 3.578125 -3.234375 C 3.484375 -3.460938 3.34375 -3.644531 3.15625 -3.78125 C 2.96875 -3.914062 2.734375 -3.984375 2.453125 -3.984375 C 2.179688 -3.984375 1.945312 -3.914062 1.75 -3.78125 C 1.550781 -3.644531 1.398438 -3.46875 1.296875 -3.25 C 1.191406 -3.03125 1.140625 -2.789062 1.140625 -2.53125 L 1.140625 -2.140625 C 1.140625 -1.804688 1.195312 -1.519531 1.3125 -1.28125 C 1.425781 -1.050781 1.585938 -0.875 1.796875 -0.75 C 2.015625 -0.625 2.257812 -0.5625 2.53125 -0.5625 C 2.71875 -0.5625 2.882812 -0.585938 3.03125 -0.640625 C 3.1875 -0.691406 3.316406 -0.769531 3.421875 -0.875 C 3.535156 -0.988281 3.617188 -1.125 3.671875 -1.28125 L 4.390625 -1.125 C 4.316406 -0.882812 4.195312 -0.671875 4.03125 -0.484375 C 3.863281 -0.296875 3.648438 -0.148438 3.390625 -0.046875 C 3.140625 0.046875 2.851562 0.09375 2.53125 0.09375 Z M 2.53125 0.09375 "/></g></g></g></g></g><g clip-path="url(#971ca729c1)"><g transform="matrix(1, 0, 0, 1, 58, -0.000000000000005846)"><g clip-path="url(#db4387a700)"><g clip-path="url(#7ad5c22637)"><path fill="#000000" d="M 0.710938 0 L 26.292969 0 L 26.292969 39.476562 L 0.710938 39.476562 Z M 0.710938 0 " fill-opacity="1" fill-rule="nonzero"/></g></g></g></g><g fill="#ffffff" fill-opacity="1"><g transform="translate(65.817937, 26.015625)"><g><path d="M 5.6875 0.21875 C 4.738281 0.21875 3.914062 0.0625 3.21875 -0.25 C 2.519531 -0.5625 1.972656 -1 1.578125 -1.5625 C 1.191406 -2.132812 0.976562 -2.804688 0.9375 -3.578125 L 2.609375 -3.578125 C 2.648438 -3.054688 2.804688 -2.625 3.078125 -2.28125 C 3.359375 -1.9375 3.726562 -1.675781 4.1875 -1.5 C 4.644531 -1.332031 5.144531 -1.25 5.6875 -1.25 C 6.289062 -1.25 6.820312 -1.34375 7.28125 -1.53125 C 7.75 -1.726562 8.117188 -2 8.390625 -2.34375 C 8.660156 -2.6875 8.796875 -3.085938 8.796875 -3.546875 C 8.796875 -3.953125 8.6875 -4.285156 8.46875 -4.546875 C 8.25 -4.816406 7.945312 -5.035156 7.5625 -5.203125 C 7.175781 -5.378906 6.734375 -5.535156 6.234375 -5.671875 L 4.6875 -6.09375 C 3.570312 -6.394531 2.722656 -6.820312 2.140625 -7.375 C 1.566406 -7.925781 1.28125 -8.632812 1.28125 -9.5 C 1.28125 -10.238281 1.472656 -10.878906 1.859375 -11.421875 C 2.253906 -11.972656 2.785156 -12.398438 3.453125 -12.703125 C 4.128906 -13.015625 4.890625 -13.171875 5.734375 -13.171875 C 6.609375 -13.171875 7.375 -13.015625 8.03125 -12.703125 C 8.6875 -12.390625 9.203125 -11.960938 9.578125 -11.421875 C 9.960938 -10.890625 10.164062 -10.273438 10.1875 -9.578125 L 8.578125 -9.578125 C 8.515625 -10.253906 8.21875 -10.773438 7.6875 -11.140625 C 7.15625 -11.515625 6.488281 -11.703125 5.6875 -11.703125 C 5.132812 -11.703125 4.644531 -11.609375 4.21875 -11.421875 C 3.789062 -11.242188 3.457031 -10.992188 3.21875 -10.671875 C 2.988281 -10.347656 2.875 -9.984375 2.875 -9.578125 C 2.875 -9.148438 3.003906 -8.800781 3.265625 -8.53125 C 3.523438 -8.257812 3.847656 -8.039062 4.234375 -7.875 C 4.617188 -7.71875 5.003906 -7.585938 5.390625 -7.484375 L 6.71875 -7.125 C 7.132812 -7.019531 7.554688 -6.878906 7.984375 -6.703125 C 8.410156 -6.523438 8.804688 -6.300781 9.171875 -6.03125 C 9.535156 -5.757812 9.832031 -5.421875 10.0625 -5.015625 C 10.289062 -4.609375 10.40625 -4.117188 10.40625 -3.546875 C 10.40625 -2.828125 10.21875 -2.179688 9.84375 -1.609375 C 9.46875 -1.046875 8.925781 -0.597656 8.21875 -0.265625 C 7.519531 0.0546875 6.675781 0.21875 5.6875 0.21875 Z M 5.6875 0.21875 "/></g></g></g><g clip-path="url(#ec7d7e1d99)"><g transform="matrix(1, 0, 0, 1, 86, -0.000000000000005846)"><g clip-path="url(#a570cdc3dd)"><g clip-path="url(#4e3d3ecec9)"><path fill="#000000" d="M 0.203125 0 L 25.785156 0 L 25.785156 39.476562 L 0.203125 39.476562 Z M 0.203125 0 " fill-opacity="1" fill-rule="nonzero"/></g></g></g></g><g fill="#ffffff" fill-opacity="1"><g transform="translate(93.669716, 26.015625)"><g><path d="M 1.5 0 L 1.5 -12.984375 L 9.53125 -12.984375 L 9.53125 -11.53125 L 3.140625 -11.53125 L 3.140625 -7.296875 L 9.09375 -7.296875 L 9.09375 -5.84375 L 3.140625 -5.84375 L 3.140625 -1.453125 L 9.59375 -1.453125 L 9.59375 0 Z M 1.5 0 "/></g></g></g><g clip-path="url(#f2909a1670)"><g transform="matrix(1, 0, 0, 1, 113, -0.000000000000005846)"><g clip-path="url(#8a4fcd90f7)"><g clip-path="url(#bc24adc442)"><path fill="#000000" d="M 0.695312 0 L 26.277344 0 L 26.277344 39.476562 L 0.695312 39.476562 Z M 0.695312 0 " fill-opacity="1" fill-rule="nonzero"/></g></g></g></g><g fill="#ffffff" fill-opacity="1"><g transform="translate(120.754963, 26.015625)"><g><path d="M 1.5 0 L 1.5 -12.984375 L 6.03125 -12.984375 C 7.019531 -12.984375 7.84375 -12.8125 8.5 -12.46875 C 9.15625 -12.132812 9.644531 -11.664062 9.96875 -11.0625 C 10.289062 -10.457031 10.453125 -9.765625 10.453125 -8.984375 C 10.453125 -8.203125 10.285156 -7.515625 9.953125 -6.921875 C 9.628906 -6.328125 9.140625 -5.863281 8.484375 -5.53125 C 7.828125 -5.207031 7.003906 -5.046875 6.015625 -5.046875 L 2.421875 -5.046875 L 2.421875 -6.515625 L 5.96875 -6.515625 C 6.632812 -6.515625 7.175781 -6.613281 7.59375 -6.8125 C 8.007812 -7.007812 8.316406 -7.289062 8.515625 -7.65625 C 8.722656 -8.03125 8.828125 -8.472656 8.828125 -8.984375 C 8.828125 -9.503906 8.722656 -9.953125 8.515625 -10.328125 C 8.316406 -10.710938 8.007812 -11.007812 7.59375 -11.21875 C 7.175781 -11.4375 6.628906 -11.546875 5.953125 -11.546875 L 3.140625 -11.546875 L 3.140625 0 Z M 8.984375 0 L 5.84375 -5.84375 L 7.6875 -5.84375 L 10.875 0 Z M 8.984375 0 "/></g></g></g><g clip-path="url(#cfd3569a6d)"><g transform="matrix(1, 0, 0, 1, 141, -0.000000000000005846)"><g clip-path="url(#6e3c2aca8c)"><g clip-path="url(#122fecf17c)"><path fill="#000000" d="M 0.183594 0 L 25.769531 0 L 25.769531 39.476562 L 0.183594 39.476562 Z M 0.183594 0 " fill-opacity="1" fill-rule="nonzero"/></g></g></g></g><g fill="#ffffff" fill-opacity="1"><g transform="translate(147.886659, 26.015625)"><g><path d="M 5.171875 0 L 0.390625 -12.984375 L 2.125 -12.984375 L 4.875 -5.25 C 5.03125 -4.8125 5.222656 -4.226562 5.453125 -3.5 C 5.691406 -2.769531 5.972656 -1.863281 6.296875 -0.78125 L 5.953125 -0.78125 C 6.273438 -1.882812 6.550781 -2.796875 6.78125 -3.515625 C 7.007812 -4.234375 7.203125 -4.8125 7.359375 -5.25 L 10.046875 -12.984375 L 11.765625 -12.984375 L 7.046875 0 Z M 5.171875 0 "/></g></g></g><g clip-path="url(#649760b6dd)"><g transform="matrix(1, 0, 0, 1, 168, -0.000000000000005846)"><g clip-path="url(#f71e6cfa44)"><g clip-path="url(#1c1e7dd15f)"><path fill="#000000" d="M 0.675781 0 L 26.261719 0 L 26.261719 39.476562 L 0.675781 39.476562 Z M 0.675781 0 " fill-opacity="1" fill-rule="nonzero"/></g></g></g></g><g fill="#ffffff" fill-opacity="1"><g transform="translate(174.669932, 26.015625)"><g><path d="M 6.796875 0.1875 C 5.679688 0.1875 4.6875 -0.0820312 3.8125 -0.625 C 2.9375 -1.175781 2.25 -1.953125 1.75 -2.953125 C 1.25 -3.953125 1 -5.128906 1 -6.484375 C 1 -7.835938 1.25 -9.015625 1.75 -10.015625 C 2.25 -11.015625 2.9375 -11.789062 3.8125 -12.34375 C 4.6875 -12.894531 5.679688 -13.171875 6.796875 -13.171875 C 7.921875 -13.171875 8.914062 -12.894531 9.78125 -12.34375 C 10.644531 -11.789062 11.328125 -11.015625 11.828125 -10.015625 C 12.328125 -9.015625 12.578125 -7.835938 12.578125 -6.484375 C 12.578125 -5.128906 12.328125 -3.953125 11.828125 -2.953125 C 11.328125 -1.953125 10.644531 -1.175781 9.78125 -0.625 C 8.914062 -0.0820312 7.921875 0.1875 6.796875 0.1875 Z M 6.796875 -1.328125 C 7.578125 -1.328125 8.28125 -1.523438 8.90625 -1.921875 C 9.539062 -2.316406 10.046875 -2.894531 10.421875 -3.65625 C 10.796875 -4.425781 10.984375 -5.367188 10.984375 -6.484375 C 10.984375 -7.597656 10.796875 -8.539062 10.421875 -9.3125 C 10.046875 -10.082031 9.539062 -10.664062 8.90625 -11.0625 C 8.28125 -11.457031 7.578125 -11.65625 6.796875 -11.65625 C 6.015625 -11.65625 5.304688 -11.453125 4.671875 -11.046875 C 4.046875 -10.648438 3.546875 -10.066406 3.171875 -9.296875 C 2.796875 -8.535156 2.609375 -7.597656 2.609375 -6.484375 C 2.609375 -5.367188 2.796875 -4.429688 3.171875 -3.671875 C 3.546875 -2.910156 4.046875 -2.328125 4.671875 -1.921875 C 5.304688 -1.523438 6.015625 -1.328125 6.796875 -1.328125 Z M 6.796875 -1.328125 "/></g></g></g><g clip-path="url(#400ccefd2f)"><g transform="matrix(1, 0, 0, 1, 196, -0.000000000000005846)"><g clip-path="url(#0eeeb92c6e)"><g clip-path="url(#db724bb432)"><path fill="#000000" d="M 0.167969 0 L 25.753906 0 L 25.753906 39.476562 L 0.167969 39.476562 Z M 0.167969 0 " fill-opacity="1" fill-rule="nonzero"/></g></g></g></g><g fill="#ffffff" fill-opacity="1"><g transform="translate(206.62149, 26.015625)"><g><path d="M 3.140625 -12.984375 L 3.140625 0 L 1.5 0 L 1.5 -12.984375 Z M 3.140625 -12.984375 "/></g></g></g><g clip-path="url(#926b59fb62)"><g transform="matrix(1, 0, 0, 1, 223, -0.000000000000005846)"><g clip-path="url(#a2a6ec6351)"><g clip-path="url(#5b40c03d60)"><path fill="#000000" d="M 0.660156 0 L 26.246094 0 L 26.246094 39.476562 L 0.660156 39.476562 Z M 0.660156 0 " fill-opacity="1" fill-rule="nonzero"/></g></g></g></g><g fill="#ffffff" fill-opacity="1"><g transform="translate(230.721902, 26.015625)"><g><path d="M 1.5 0 L 1.5 -12.984375 L 6.03125 -12.984375 C 7.019531 -12.984375 7.84375 -12.8125 8.5 -12.46875 C 9.15625 -12.132812 9.644531 -11.664062 9.96875 -11.0625 C 10.289062 -10.457031 10.453125 -9.765625 10.453125 -8.984375 C 10.453125 -8.203125 10.285156 -7.515625 9.953125 -6.921875 C 9.628906 -6.328125 9.140625 -5.863281 8.484375 -5.53125 C 7.828125 -5.207031 7.003906 -5.046875 6.015625 -5.046875 L 2.421875 -5.046875 L 2.421875 -6.515625 L 5.96875 -6.515625 C 6.632812 -6.515625 7.175781 -6.613281 7.59375 -6.8125 C 8.007812 -7.007812 8.316406 -7.289062 8.515625 -7.65625 C 8.722656 -8.03125 8.828125 -8.472656 8.828125 -8.984375 C 8.828125 -9.503906 8.722656 -9.953125 8.515625 -10.328125 C 8.316406 -10.710938 8.007812 -11.007812 7.59375 -11.21875 C 7.175781 -11.4375 6.628906 -11.546875 5.953125 -11.546875 L 3.140625 -11.546875 L 3.140625 0 Z M 8.984375 0 L 5.84375 -5.84375 L 7.6875 -5.84375 L 10.875 0 Z M 8.984375 0 "/></g></g></g></svg>